<?xml version="1.0" encoding="UTF-8"?>
<svg version="1.1" xmlns="http://www.w3.org/2000/svg" width="500" height="500">
<path d="M0 0 C14.52 0 29.04 0 44 0 C50.76779801 16.91949503 50.76779801 16.91949503 53.0625 23.6875 C55.07488503 29.50866612 57.29169657 35.18062533 59.71875 40.84375 C61.27875006 44.68667697 62.64325895 48.58162516 64 52.5 C65.66127989 57.29465291 67.36922934 62.02307361 69.375 66.6875 C72.2579078 73.40804481 74.68835131 80.28802859 77.14599609 87.17260742 C78.94709231 92.19758566 80.87248565 97.10555443 83 102 C83.93155077 104.43327486 84.84915227 106.86805094 85.75 109.3125 C87.9485331 115.22905869 90.20136577 121.12162944 92.5 127 C95.46347336 134.59005444 98.35823758 142.20257141 101.19238281 149.84179688 C102.09285889 152.24814771 103.01106588 154.64739543 103.9296875 157.046875 C104.57831544 158.76034459 105.22675592 160.47388515 105.875 162.1875 C106.34099609 163.39104126 106.34099609 163.39104126 106.81640625 164.61889648 C107.10128906 165.37759033 107.38617188 166.13628418 107.6796875 166.91796875 C107.93476074 167.58594482 108.18983398 168.2539209 108.45263672 168.94213867 C109 171 109 171 109 176 C91.18 176 73.36 176 55 176 C49 158 49 158 47 148 C29.51 148.33 12.02 148.66 -6 149 C-8.59122426 157.51054724 -8.59122426 157.51054724 -11.17553711 166.02319336 C-11.4978833 167.07643799 -11.82022949 168.12968262 -12.15234375 169.21484375 C-12.48226318 170.29886475 -12.81218262 171.38288574 -13.15209961 172.49975586 C-14 175 -14 175 -15 176 C-17.73894085 176.08858646 -20.4525327 176.11523479 -23.19140625 176.09765625 C-24.01124496 176.0962413 -24.83108368 176.09482635 -25.67576599 176.09336853 C-28.30471382 176.08775289 -30.93357773 176.07519779 -33.5625 176.0625 C-35.34049357 176.05748701 -37.11848846 176.05292376 -38.89648438 176.04882812 C-43.26438158 176.03862752 -47.6320964 176.01905532 -52 176 C-52.33 170.39 -52.66 164.78 -53 159 C-55.28679687 159.01160156 -57.57359375 159.02320313 -59.9296875 159.03515625 C-62.14046083 159.04295131 -64.35123263 159.04902552 -66.56201172 159.05493164 C-68.10043013 159.05996552 -69.63884375 159.06679308 -71.17724609 159.07543945 C-73.38640526 159.08754639 -75.59550126 159.09323769 -77.8046875 159.09765625 C-78.49432587 159.10281754 -79.18396423 159.10797882 -79.89450073 159.11329651 C-84.77225659 159.11387171 -84.77225659 159.11387171 -87 158 C-87 152.39 -87 146.78 -87 141 C-92.61 141 -98.22 141 -104 141 C-104 134.73 -104 128.46 -104 122 C-100.99686252 120.49843126 -98.20932478 120.90718796 -94.875 120.9375 C-92.95300781 120.95103516 -92.95300781 120.95103516 -90.9921875 120.96484375 C-90.00476563 120.97644531 -89.01734375 120.98804688 -88 121 C-87.90912109 119.28490234 -87.90912109 119.28490234 -87.81640625 117.53515625 C-87.73201572 116.04425695 -87.64736698 114.55337225 -87.5625 113.0625 C-87.52318359 112.30775391 -87.48386719 111.55300781 -87.44335938 110.77539062 C-87.11328125 105.11328125 -87.11328125 105.11328125 -86 104 C-83.13530675 103.92669669 -80.30106326 103.90782169 -77.4375 103.9375 C-74.653125 103.958125 -71.86875 103.97875 -69 104 C-69 98.39 -69 92.78 -69 87 C-63.39 87 -57.78 87 -52 87 C-52 75.45 -52 63.9 -52 52 C-46.39 52 -40.78 52 -35 52 C-35.495 44.575 -35.495 44.575 -36 37 C-40.89153471 37.0395679 -40.89153471 37.0395679 -45.78295898 37.09008789 C-47.52221717 37.09724913 -49.26145304 37.05024702 -51 37 C-52.5220959 35.4779041 -52.12959521 34.11789918 -52.1328125 32 C-52.13474609 30.7934375 -52.13474609 30.7934375 -52.13671875 29.5625 C-52.13285156 28.716875 -52.12898438 27.87125 -52.125 27 C-52.13080078 25.7315625 -52.13080078 25.7315625 -52.13671875 24.4375 C-52.13542969 23.633125 -52.13414062 22.82875 -52.1328125 22 C-52.13168457 21.2575 -52.13055664 20.515 -52.12939453 19.75 C-52 18 -52 18 -51 17 C-49.65732587 16.91368126 -48.31025678 16.89293527 -46.96484375 16.90234375 C-45.87224243 16.90609009 -45.87224243 16.90609009 -44.75756836 16.90991211 C-43.8269458 16.91901611 -42.89632324 16.92812012 -41.9375 16.9375 C-37.5134375 16.9684375 -37.5134375 16.9684375 -33 17 C-33 22.94 -33 28.88 -33 35 C-28.05 34.67 -23.1 34.34 -18 34 C-18.020625 31.9375 -18.04125 29.875 -18.0625 27.75 C-18.10177189 23.82281141 -17.95891957 20.83567829 -17 17 C-11.39 17 -5.78 17 0 17 C0 11.39 0 5.78 0 0 Z M20 19 C20 24.28 20 29.56 20 35 C24.95 35 29.9 35 35 35 C35 29.72 35 24.44 35 19 C30.05 19 25.1 19 20 19 Z M-14 36 C-16.35641524 37.91406662 -16.35641524 37.91406662 -16.1953125 41.2578125 C-16.17210937 42.53398437 -16.14890625 43.81015625 -16.125 45.125 C-16.08375 47.39375 -16.0425 49.6625 -16 52 C-10.72 52 -5.44 52 0 52 C0 47.05 0 42.1 0 37 C-2.26875 36.79375 -4.5375 36.5875 -6.875 36.375 C-8.15117187 36.25898438 -9.42734375 36.14296875 -10.7421875 36.0234375 C-12.35480469 36.01183594 -12.35480469 36.01183594 -14 36 Z M20 63 C16.79800813 70.57126506 14.25506836 78.26081976 11.875 86.125 C11.52824219 87.25292969 11.18148437 88.38085938 10.82421875 89.54296875 C9.05291646 95.34551074 7.47406011 101.10375955 6 107 C15.24 107 24.48 107 34 107 C31.7269382 98.59204085 31.7269382 98.59204085 29.28125 90.24609375 C28.98863281 89.28896484 28.69601562 88.33183594 28.39453125 87.34570312 C28.09933594 86.38599609 27.80414063 85.42628906 27.5 84.4375 C26.90605731 82.49875694 26.31230573 80.55995532 25.71875 78.62109375 C25.43386719 77.69151855 25.14898437 76.76194336 24.85546875 75.80419922 C23.55483565 71.5407655 22.27551952 67.27100468 21 63 C20.67 63 20.34 63 20 63 Z M-33 72 C-33 76.95 -33 81.9 -33 87 C-27.72 87 -22.44 87 -17 87 C-16.979375 84.89625 -16.95875 82.7925 -16.9375 80.625 C-16.92589844 79.44164062 -16.91429687 78.25828125 -16.90234375 77.0390625 C-16.78533407 74.08078479 -16.78533407 74.08078479 -18 72 C-22.95 72 -27.9 72 -33 72 Z M-50 107 C-50 111.62 -50 116.24 -50 121 C-45.09931037 122.63356321 -40.14261524 122.05529694 -35 122 C-35 117.05 -35 112.1 -35 107 C-39.95 107 -44.9 107 -50 107 Z M-85 124 C-85 128.95 -85 133.9 -85 139 C-81.49279943 139.87680014 -78.87957211 140.13452489 -75.3125 140.125 C-74.33925781 140.12757813 -73.36601562 140.13015625 -72.36328125 140.1328125 C-70.04362389 140.26572962 -70.04362389 140.26572962 -69 139 C-68.92679837 136.4672235 -68.90772431 133.96896082 -68.9375 131.4375 C-68.9684375 127.7559375 -68.9684375 127.7559375 -69 124 C-74.28 124 -79.56 124 -85 124 Z M-50 141 C-50 146.28 -50 151.56 -50 157 C-45.05 157 -40.1 157 -35 157 C-35 151.72 -35 146.44 -35 141 C-39.95 141 -44.9 141 -50 141 Z " fill="#ED6A13" transform="translate(268,162)"/>
<path d="M0 0 C14.52 0 29.04 0 44 0 C47.48744519 8.71861298 50.90250602 17.29564455 53.89648438 26.16210938 C55.00161682 29.37399567 56.15420107 32.30449381 57.6953125 35.34765625 C59 38 59 38 58.6875 40.375 C58.460625 40.91125 58.23375 41.4475 58 42 C58 41.01 58 40.02 58 39 C57.34 39 56.68 39 56 39 C56 38.01 56 37.02 56 36 C55.34 36 54.68 36 54 36 C53.84144531 35.29875 53.68289063 34.5975 53.51953125 33.875 C52.1040122 28.11907722 50.42238733 23.61307881 47.07421875 18.7265625 C45.72257392 16.55410062 45.23771586 14.53563587 45 12 C44.67 12 44.34 12 44 12 C43.505 7.545 43.505 7.545 43 3 C39.41592489 2.18103843 36.10322583 1.87154372 32.4296875 1.8671875 C30.83640625 1.86525391 30.83640625 1.86525391 29.2109375 1.86328125 C28.11007812 1.86714844 27.00921875 1.87101563 25.875 1.875 C24.79734375 1.87113281 23.7196875 1.86726562 22.609375 1.86328125 C15.67642478 1.8716342 8.89535478 2.27719243 2 3 C1.67 8.28 1.34 13.56 1 19 C-4.28 19.33 -9.56 19.66 -15 20 C-14.91621094 21.21558594 -14.83242187 22.43117187 -14.74609375 23.68359375 C-14.64295297 25.26821121 -14.54010339 26.85284765 -14.4375 28.4375 C-14.35338867 29.64116211 -14.35338867 29.64116211 -14.26757812 30.86914062 C-14.1383705 32.91062111 -14.0648727 34.95546369 -14 37 C-14.33 37.33 -14.66 37.66 -15 38 C-15.23527773 40.34987262 -15.41386417 42.70556039 -15.5625 45.0625 C-15.706875 47.351875 -15.85125 49.64125 -16 52 C-10.72 52 -5.44 52 0 52 C0 47.05 0 42.1 0 37 C-3.96 37 -7.92 37 -12 37 C-12 36.67 -12 36.34 -12 36 C-7.05 36 -2.1 36 3 36 C3.02690104 38.79173055 3.04679053 41.58320348 3.0625 44.375 C3.07087891 45.1690625 3.07925781 45.963125 3.08789062 46.78125 C3.11328125 52.7734375 3.11328125 52.7734375 2 55 C-0.97888126 55.1938211 -3.95790246 55.38035102 -6.9375 55.5625 C-8.21270508 55.64661133 -8.21270508 55.64661133 -9.51367188 55.73242188 C-10.72700195 55.80493164 -10.72700195 55.80493164 -11.96484375 55.87890625 C-12.7137085 55.9260376 -13.46257324 55.97316895 -14.23413086 56.02172852 C-16 56 -16 56 -17 55 C-17.08631874 53.65732587 -17.10706473 52.31025678 -17.09765625 50.96484375 C-17.09443359 50.15595703 -17.09121094 49.34707031 -17.08789062 48.51367188 C-17.07532227 47.2384668 -17.07532227 47.2384668 -17.0625 45.9375 C-17.05798828 45.08349609 -17.05347656 44.22949219 -17.04882812 43.34960938 C-17.03700373 41.23304337 -17.01906769 39.11651315 -17 37 C-22.28 37 -27.56 37 -33 37 C-32.96042843 42.22063275 -32.96042843 42.22063275 -32.90991211 47.44116211 C-32.90276055 49.29433759 -32.9497148 51.14749308 -33 53 C-34 54 -34 54 -37.59765625 54.09765625 C-39.08596867 54.0909822 -40.57426432 54.07902183 -42.0625 54.0625 C-43.20041992 54.05573242 -43.20041992 54.05573242 -44.36132812 54.04882812 C-46.24091871 54.0370068 -48.12046899 54.01907078 -50 54 C-49.99476318 54.6798999 -49.98952637 55.3597998 -49.98413086 56.06030273 C-49.96314929 59.18602549 -49.95027313 62.31173335 -49.9375 65.4375 C-49.92912109 66.50677734 -49.92074219 67.57605469 -49.91210938 68.67773438 C-49.89315369 74.87624228 -50.17936741 80.8549481 -51 87 C-51.33 87 -51.66 87 -52 87 C-52 75.45 -52 63.9 -52 52 C-46.39 52 -40.78 52 -35 52 C-35.33 47.05 -35.66 42.1 -36 37 C-40.89153471 37.0395679 -40.89153471 37.0395679 -45.78295898 37.09008789 C-47.52221717 37.09724913 -49.26145304 37.05024702 -51 37 C-52.5220959 35.4779041 -52.12959521 34.11789918 -52.1328125 32 C-52.13410156 31.195625 -52.13539063 30.39125 -52.13671875 29.5625 C-52.13285156 28.716875 -52.12898437 27.87125 -52.125 27 C-52.12886719 26.154375 -52.13273438 25.30875 -52.13671875 24.4375 C-52.13542969 23.633125 -52.13414062 22.82875 -52.1328125 22 C-52.13168457 21.2575 -52.13055664 20.515 -52.12939453 19.75 C-52 18 -52 18 -51 17 C-49.65732587 16.91368126 -48.31025678 16.89293527 -46.96484375 16.90234375 C-45.87224243 16.90609009 -45.87224243 16.90609009 -44.75756836 16.90991211 C-43.8269458 16.91901611 -42.89632324 16.92812012 -41.9375 16.9375 C-37.5134375 16.9684375 -37.5134375 16.9684375 -33 17 C-33 22.94 -33 28.88 -33 35 C-28.05 34.67 -23.1 34.34 -18 34 C-18.020625 31.9375 -18.04125 29.875 -18.0625 27.75 C-18.10177189 23.82281141 -17.95891957 20.83567829 -17 17 C-11.39 17 -5.78 17 0 17 C0 11.39 0 5.78 0 0 Z " fill="#E19C55" transform="translate(268,162)"/>
<path d="M0 0 C5.61 0 11.22 0 17 0 C17 0.33 17 0.66 17 1 C11.72 1 6.44 1 1 1 C1 6.94 1 12.88 1 19 C-4.61 19 -10.22 19 -16 19 C-16 24.28 -16 29.56 -16 35 C-10.06 35 -4.12 35 2 35 C1.855625 37.949375 1.71125 40.89875 1.5625 43.9375 C1.51939697 44.86812256 1.47629395 45.79874512 1.43188477 46.75756836 C1.39377686 47.48596924 1.35566895 48.21437012 1.31640625 48.96484375 C1.27974854 49.7137085 1.24309082 50.46257324 1.20532227 51.23413086 C1 53 1 53 0 54 C-2.69235776 54.23678716 -5.36498156 54.42198025 -8.0625 54.5625 C-9.20041992 54.62727539 -9.20041992 54.62727539 -10.36132812 54.69335938 C-12.24065438 54.79973633 -14.12030244 54.90039934 -16 55 C-16 59.95 -16 64.9 -16 70 C-5.11 70 5.78 70 17 70 C17 64.72 17 59.44 17 54 C18 53 18 53 21.81640625 52.90234375 C23.39847047 52.90808862 24.98051031 52.92110407 26.5625 52.9375 C29.346875 52.958125 32.13125 52.97875 35 53 C35 58.94 35 64.88 35 71 C29.39 71 23.78 71 18 71 C18 76.61 18 82.22 18 88 C29.88 87.67 41.76 87.34 54 87 C54 84.69 54 82.38 54 80 C55 77.0625 55 77.0625 56 75 C56.66 75 57.32 75 58 75 C57.71390693 76.39698636 57.42083095 77.7925433 57.125 79.1875 C56.96257812 79.96480469 56.80015625 80.74210937 56.6328125 81.54296875 C56 84 56 84 54 89 C41.79 89 29.58 89 17 89 C16.67 83.39 16.34 77.78 16 72 C13.71320313 72.01160156 11.42640625 72.02320313 9.0703125 72.03515625 C6.85953917 72.04295131 4.64876737 72.04902552 2.43798828 72.05493164 C0.89956987 72.05996552 -0.63884375 72.06679308 -2.17724609 72.07543945 C-4.38640526 72.08754639 -6.59550126 72.09323769 -8.8046875 72.09765625 C-9.49432587 72.10281754 -10.18396423 72.10797882 -10.89450073 72.11329651 C-15.77225659 72.11387171 -15.77225659 72.11387171 -18 71 C-18 65.39 -18 59.78 -18 54 C-23.61 54 -29.22 54 -35 54 C-35 47.73 -35 41.46 -35 35 C-31.99686252 33.49843126 -29.20932478 33.90718796 -25.875 33.9375 C-24.59367188 33.94652344 -23.31234375 33.95554687 -21.9921875 33.96484375 C-20.51105469 33.98224609 -20.51105469 33.98224609 -19 34 C-18.93941406 32.85660156 -18.87882812 31.71320313 -18.81640625 30.53515625 C-18.73201572 29.04425695 -18.64736698 27.55337225 -18.5625 26.0625 C-18.52318359 25.30775391 -18.48386719 24.55300781 -18.44335938 23.77539062 C-18.11328125 18.11328125 -18.11328125 18.11328125 -17 17 C-14.13530675 16.92669669 -11.30106326 16.90782169 -8.4375 16.9375 C-5.653125 16.958125 -2.86875 16.97875 0 17 C0 11.39 0 5.78 0 0 Z M-16 37 C-16 41.95 -16 46.9 -16 52 C-12.49279943 52.87680014 -9.87957211 53.13452489 -6.3125 53.125 C-5.33925781 53.12757813 -4.36601562 53.13015625 -3.36328125 53.1328125 C-1.04362389 53.26572962 -1.04362389 53.26572962 0 52 C0.07320163 49.4672235 0.09227569 46.96896082 0.0625 44.4375 C0.0315625 40.7559375 0.0315625 40.7559375 0 37 C-5.28 37 -10.56 37 -16 37 Z M19 54 C19 59.28 19 64.56 19 70 C23.95 70 28.9 70 34 70 C34 64.72 34 59.44 34 54 C29.05 54 24.1 54 19 54 Z " fill="#E8C574" transform="translate(199,249)"/>
<path d="M0 0 C2.97922593 -0.02683987 5.95821295 -0.04676037 8.9375 -0.0625 C9.78763672 -0.07087891 10.63777344 -0.07925781 11.51367188 -0.08789062 C12.32255859 -0.09111328 13.13144531 -0.09433594 13.96484375 -0.09765625 C14.7137085 -0.10289307 15.46257324 -0.10812988 16.23413086 -0.11352539 C18 0 18 0 19 1 C19.0983721 2.33043625 19.13078592 3.66593344 19.1328125 5 C19.13474609 6.2065625 19.13474609 6.2065625 19.13671875 7.4375 C19.13285156 8.283125 19.12898438 9.12875 19.125 10 C19.13080078 11.2684375 19.13080078 11.2684375 19.13671875 12.5625 C19.13542969 13.366875 19.13414062 14.17125 19.1328125 15 C19.13168457 15.7425 19.13055664 16.485 19.12939453 17.25 C19 19 19 19 18 20 C16.66956375 20.0983721 15.33406656 20.13078592 14 20.1328125 C13.195625 20.13410156 12.39125 20.13539063 11.5625 20.13671875 C10.716875 20.13285156 9.87125 20.12898438 9 20.125 C8.154375 20.12886719 7.30875 20.13273437 6.4375 20.13671875 C5.633125 20.13542969 4.82875 20.13414062 4 20.1328125 C3.2575 20.13168457 2.515 20.13055664 1.75 20.12939453 C0 20 0 20 -1 19 C-1.10007008 16.17743509 -1.13875598 13.3847681 -1.125 10.5625 C-1.12886719 9.77294922 -1.13273438 8.98339844 -1.13671875 8.16992188 C-1.12663067 2.25326133 -1.12663067 2.25326133 0 0 Z " fill="#FAC204" transform="translate(140,272)"/>
<path d="M0 0 C1.56125851 0.00399299 3.12251789 0.01875614 4.68359375 0.04296875 C5.47701172 0.04361328 6.27042969 0.04425781 7.08789062 0.04492188 C12.98083853 0.09021353 12.98083853 0.09021353 14.12109375 1.23046875 C14.20760986 2.64616998 14.22814279 4.06606375 14.21875 5.484375 C14.21552734 6.33837891 14.21230469 7.19238281 14.20898438 8.07226562 C14.20060547 8.97009766 14.19222656 9.86792969 14.18359375 10.79296875 C14.17908203 11.69466797 14.17457031 12.59636719 14.16992188 13.52539062 C14.158096 15.76048189 14.14161595 17.99544312 14.12109375 20.23046875 C10.55024361 21.42075213 7.27502545 21.41445273 3.55859375 21.41796875 C2.87345703 21.43021484 2.18832031 21.44246094 1.48242188 21.45507812 C-0.30624737 21.46034408 -2.09439473 21.35246896 -3.87890625 21.23046875 C-6.50614449 18.60323051 -6.14006596 16.68835202 -6.15234375 13.109375 C-6.14460937 12.32433594 -6.136875 11.53929687 -6.12890625 10.73046875 C-6.13664063 9.94542969 -6.144375 9.16039062 -6.15234375 8.3515625 C-6.12494189 0.363919 -6.12494189 0.363919 0 0 Z " fill="#EEAE34" transform="translate(189.87890625,195.76953125)"/>
<path d="M0 0 C1.18613892 0.00785522 1.18613892 0.00785522 2.39624023 0.01586914 C3.16524658 0.0183667 3.93425293 0.02086426 4.7265625 0.0234375 C5.70939209 0.0325415 6.69222168 0.04164551 7.70483398 0.05102539 C12.37639648 0.08196289 12.37639648 0.08196289 17.14233398 0.11352539 C17.14233398 6.38352539 17.14233398 12.65352539 17.14233398 19.11352539 C12.66479273 19.75317414 8.77091815 20.26996886 4.32983398 20.30102539 C3.39526367 20.31520508 2.46069336 20.32938477 1.49780273 20.34399414 C-0.85766602 20.11352539 -0.85766602 20.11352539 -2.85766602 18.11352539 C-3.02945653 15.22220362 -3.08996072 12.43910474 -3.04516602 9.55102539 C-3.04452148 8.75760742 -3.04387695 7.96418945 -3.04321289 7.14672852 C-2.98968923 0.18270541 -2.98968923 0.18270541 0 0 Z " fill="#F5A40A" transform="translate(186.857666015625,222.886474609375)"/>
<path d="M0 0 C1.64285685 3.28571371 1.22630526 6.89247533 1.25 10.5 C1.270625 11.28503906 1.29125 12.07007813 1.3125 12.87890625 C1.328125 15.15625 1.328125 15.15625 1 19 C-2.12343663 21.08229108 -2.53852922 21.23770457 -6.01171875 20.9765625 C-6.76904297 20.925 -7.52636719 20.8734375 -8.30664062 20.8203125 C-9.48516602 20.72363281 -9.48516602 20.72363281 -10.6875 20.625 C-11.48478516 20.56828125 -12.28207031 20.5115625 -13.10351562 20.453125 C-15.06973581 20.31183972 -17.03498824 20.15720094 -19 20 C-19.02683987 17.02077407 -19.04676037 14.04178705 -19.0625 11.0625 C-19.07087891 10.21236328 -19.07925781 9.36222656 -19.08789062 8.48632812 C-19.09111328 7.67744141 -19.09433594 6.86855469 -19.09765625 6.03515625 C-19.10289307 5.2862915 -19.10812988 4.53742676 -19.11352539 3.76586914 C-19 2 -19 2 -18 1 C-15.34912921 0.76221425 -12.71871877 0.57754265 -10.0625 0.4375 C-8.9497168 0.37272461 -8.9497168 0.37272461 -7.81445312 0.30664062 C-2.44580853 0 -2.44580853 0 0 0 Z " fill="#F8CD0A" transform="translate(141,246)"/>
<path d="M0 0 C6.6 0 13.2 0 20 0 C20 6.27 20 12.54 20 19 C16.885625 19.020625 13.77125 19.04125 10.5625 19.0625 C9.08825562 19.07615601 9.08825562 19.07615601 7.58422852 19.09008789 C6.81522217 19.09258545 6.04621582 19.09508301 5.25390625 19.09765625 C4.46314697 19.10289307 3.6723877 19.10812988 2.85766602 19.11352539 C1 19 1 19 0 18 C-0.08631874 16.65732587 -0.10706473 15.31025678 -0.09765625 13.96484375 C-0.09515869 13.23644287 -0.09266113 12.50804199 -0.09008789 11.75756836 C-0.08098389 10.8269458 -0.07187988 9.89632324 -0.0625 8.9375 C-0.041875 5.988125 -0.02125 3.03875 0 0 Z " fill="#F7BA08" transform="translate(151,220)"/>
<path d="M0 0 C6.6 0 13.2 0 20 0 C20.020625 2.949375 20.04125 5.89875 20.0625 8.9375 C20.071604 9.86812256 20.08070801 10.79874512 20.09008789 11.75756836 C20.09258545 12.48596924 20.09508301 13.21437012 20.09765625 13.96484375 C20.10551147 15.08814087 20.10551147 15.08814087 20.11352539 16.23413086 C20 18 20 18 19 19 C17.66956375 19.0983721 16.33406656 19.13078592 15 19.1328125 C14.195625 19.13410156 13.39125 19.13539063 12.5625 19.13671875 C11.716875 19.13285156 10.87125 19.12898438 10 19.125 C9.154375 19.12886719 8.30875 19.13273437 7.4375 19.13671875 C6.633125 19.13542969 5.82875 19.13414062 5 19.1328125 C4.2575 19.13168457 3.515 19.13055664 2.75 19.12939453 C1 19 1 19 0 18 C-0.08631874 16.65732587 -0.10706473 15.31025678 -0.09765625 13.96484375 C-0.09515869 13.23644287 -0.09266113 12.50804199 -0.09008789 11.75756836 C-0.08098389 10.8269458 -0.07187988 9.89632324 -0.0625 8.9375 C-0.041875 5.988125 -0.02125 3.03875 0 0 Z " fill="#F7B407" transform="translate(160,246)"/>
<path d="M0 0 C5.28 0 10.56 0 16 0 C12.1496895 2.56687367 10.41430237 1.83288724 6 1 C5.896875 1.598125 5.79375 2.19625 5.6875 2.8125 C5 5 5 5 3.47265625 6.13671875 C1.1303548 9.10032031 1.64726968 12.39159749 1.75 16 C1.75773437 17.08667969 1.75773437 17.08667969 1.765625 18.1953125 C1.81254494 21.3741381 1.9890376 23.96711281 3 27 C2.20970586 31.45145269 1.17235516 35.12073363 -2.5 37.875 C-3.325 38.24625 -4.15 38.6175 -5 39 C-6.75149165 40.58245275 -6.75149165 40.58245275 -8 42 C-8 40.68 -8 39.36 -8 38 C-9.98 38.495 -9.98 38.495 -12 39 C-12 38.34 -12 37.68 -12 37 C-14.54676342 38.89985827 -14.97846629 39.86144291 -15.4765625 43.06640625 C-15.52554688 44.22011719 -15.57453125 45.37382812 -15.625 46.5625 C-15.91881919 52.83763838 -15.91881919 52.83763838 -17 55 C-17.78375 54.979375 -18.5675 54.95875 -19.375 54.9375 C-21.98114961 54.81315937 -21.98114961 54.81315937 -24 56 C-24 55.34 -24 54.68 -24 54 C-24.928125 54.495 -25.85625 54.99 -26.8125 55.5 C-30 57 -30 57 -33 57 C-33.33 58.32 -33.66 59.64 -34 61 C-31.69 61.33 -29.38 61.66 -27 62 C-26.67 63.32 -26.34 64.64 -26 66 C-23.61435923 65.42415568 -21.33317216 64.77772405 -19 64 C-18.34 64.99 -17.68 65.98 -17 67 C-18 68 -18 68 -21.81640625 68.09765625 C-23.39846682 68.09098089 -24.98051159 68.07901875 -26.5625 68.0625 C-27.36880859 68.05798828 -28.17511719 68.05347656 -29.00585938 68.04882812 C-31.00393756 68.03700518 -33.00197783 68.01906914 -35 68 C-35 62.72 -35 57.44 -35 52 C-29.39 52 -23.78 52 -18 52 C-18 46.06 -18 40.12 -18 34 C-10.08 33.505 -10.08 33.505 -2 33 C-1.10075642 25.813608 -0.70353944 18.67290051 -0.4375 11.4375 C-0.37272461 9.78137695 -0.37272461 9.78137695 -0.30664062 8.09179688 C-0.20155665 5.39464156 -0.10037587 2.69733464 0 0 Z " fill="#E7991D" transform="translate(218,216)"/>
<path d="M0 0 C3.63 0 7.26 0 11 0 C10.67 1.98 10.34 3.96 10 6 C10.66 6.33 11.32 6.66 12 7 C12.32547023 9.52006952 12.37951888 12.01590676 12.4609375 14.5546875 C13.24114683 19.54124278 15.27514655 24.256653 17 29 C41.75 29.495 41.75 29.495 67 30 C67 29.01 67 28.02 67 27 C67.66 27 68.32 27 69 27 C69 28.65 69 30.3 69 32 C51.18 32 33.36 32 15 32 C9 14 9 14 7 4 C-10.49 4.33 -27.98 4.66 -46 5 C-47.32 9.29 -48.64 13.58 -50 18 C-50.33 18 -50.66 18 -51 18 C-51.27099712 11.76706632 -50.29643142 7.48215712 -49 1 C-32.83 1 -16.66 1 0 1 C0 0.67 0 0.34 0 0 Z " fill="#D98B76" transform="translate(308,306)"/>
<path d="M0 0 C5.28 0 10.56 0 16 0 C16 5.61 16 11.22 16 17 C10.39 17 4.78 17 -1 17 C-1.020625 14.56625 -1.04125 12.1325 -1.0625 9.625 C-1.071604 8.86010254 -1.08070801 8.09520508 -1.09008789 7.30712891 C-1.11111111 2.22222222 -1.11111111 2.22222222 0 0 Z " fill="#F7B206" transform="translate(166,285)"/>
<path d="M0 0 C0.99 0.33 1.98 0.66 3 1 C3.99 1 4.98 1 6 1 C6 1.66 6 2.32 6 3 C6.9075 2.67 7.815 2.34 8.75 2 C12 1 12 1 16 1 C17 3 18 5 19 7 C18.01 7.495 18.01 7.495 17 8 C16.85581844 12.63581874 16.85581844 12.63581874 17.5625 17.1875 C18.11062831 19.45831728 17.82295183 20.83039973 17 23 C13.93466836 24.53266582 10.73245728 24.10276471 7.375 24.0625 C6.66859375 24.05798828 5.9621875 24.05347656 5.234375 24.04882812 C3.48954725 24.03703875 1.744763 24.01910324 0 24 C0 28.29 0 32.58 0 37 C4.21861875 37.09187554 8.43376537 37.17148388 12.65258789 37.21972656 C14.08727786 37.23983525 15.52188593 37.26712673 16.95629883 37.30175781 C19.01924839 37.3503146 21.08111431 37.37297406 23.14453125 37.390625 C24.38565674 37.41157227 25.62678223 37.43251953 26.90551758 37.45410156 C30.10150964 37.30977242 30.10150964 37.30977242 31.9284668 34.97558594 C32.28207275 34.32364258 32.63567871 33.67169922 33 33 C33 34.98 33 36.96 33 39 C29.43072615 40.18975795 26.20053028 40.12478155 22.48828125 40.09765625 C21.76005661 40.0962413 21.03183197 40.09482635 20.28153992 40.09336853 C17.95848461 40.08777659 15.63552612 40.07522562 13.3125 40.0625 C11.73632952 40.05748396 10.16015752 40.05292123 8.58398438 40.04882812 C4.72258905 40.03866121 0.86140275 40.01908436 -3 40 C-3 34.39 -3 28.78 -3 23 C2.61 23 8.22 23 14 23 C14 17.06 14 11.12 14 5 C5.585 5.495 5.585 5.495 -3 6 C-3.33 11.28 -3.66 16.56 -4 22 C-4.33 22 -4.66 22 -5 22 C-5.27616405 19.2503666 -5.52164742 16.50366342 -5.75 13.75 C-5.83121094 12.97269531 -5.91242188 12.19539063 -5.99609375 11.39453125 C-6.44250073 5.59124047 -6.44250073 5.59124047 -4.140625 2.515625 C-2 1 -2 1 0 0 Z " fill="#E2901F" transform="translate(220,297)"/>
<path d="M0 0 C5.61 0 11.22 0 17 0 C17 5.28 17 10.56 17 16 C11.72 16 6.44 16 1 16 C-0.7213061 10.83608171 -0.05353552 5.40708764 0 0 Z " fill="#EE9011" transform="translate(217,181)"/>
<path d="M0 0 C14.52 0 29.04 0 44 0 C47.48744519 8.71861298 50.90250602 17.29564455 53.89648438 26.16210938 C55.00161682 29.37399567 56.15420107 32.30449381 57.6953125 35.34765625 C59 38 59 38 58.6875 40.375 C58.460625 40.91125 58.23375 41.4475 58 42 C58 41.01 58 40.02 58 39 C57.34 39 56.68 39 56 39 C56 38.01 56 37.02 56 36 C55.34 36 54.68 36 54 36 C53.84144531 35.29875 53.68289063 34.5975 53.51953125 33.875 C52.1040122 28.11907722 50.42238733 23.61307881 47.07421875 18.7265625 C45.72257392 16.55410062 45.23771586 14.53563587 45 12 C44.67 12 44.34 12 44 12 C43.505 7.545 43.505 7.545 43 3 C39.41592489 2.18103843 36.10322583 1.87154372 32.4296875 1.8671875 C30.83640625 1.86525391 30.83640625 1.86525391 29.2109375 1.86328125 C28.11007812 1.86714844 27.00921875 1.87101563 25.875 1.875 C24.79734375 1.87113281 23.7196875 1.86726562 22.609375 1.86328125 C15.67642478 1.8716342 8.89535478 2.27719243 2 3 C1.67 8.28 1.34 13.56 1 19 C-4.28 19.33 -9.56 19.66 -15 20 C-14.67 25.61 -14.34 31.22 -14 37 C-14.99 37.495 -14.99 37.495 -16 38 C-16 37.01 -16 36.02 -16 35 C-16.66 34.67 -17.32 34.34 -18 34 C-18.02709444 31.91673869 -18.04643873 29.83337559 -18.0625 27.75 C-18.07410156 26.58984375 -18.08570313 25.4296875 -18.09765625 24.234375 C-18 21 -18 21 -17 17 C-11.39 17 -5.78 17 0 17 C0 11.39 0 5.78 0 0 Z " fill="#E6B37F" transform="translate(268,162)"/>
<path d="M0 0 C1.58206422 0.00574487 3.16410406 0.01876032 4.74609375 0.03515625 C8.92265625 0.06609375 8.92265625 0.06609375 13.18359375 0.09765625 C13.18359375 6.03765625 13.18359375 11.97765625 13.18359375 18.09765625 C7.57359375 18.09765625 1.96359375 18.09765625 -3.81640625 18.09765625 C-3.81640625 23.70765625 -3.81640625 29.31765625 -3.81640625 35.09765625 C8.06359375 34.76765625 19.94359375 34.43765625 32.18359375 34.09765625 C32.18359375 31.78765625 32.18359375 29.47765625 32.18359375 27.09765625 C33.18359375 24.16015625 33.18359375 24.16015625 34.18359375 22.09765625 C34.84359375 22.09765625 35.50359375 22.09765625 36.18359375 22.09765625 C35.89750068 23.49464261 35.6044247 24.89019955 35.30859375 26.28515625 C35.14617187 27.06246094 34.98375 27.83976562 34.81640625 28.640625 C34.18359375 31.09765625 34.18359375 31.09765625 32.18359375 36.09765625 C19.97359375 36.09765625 7.76359375 36.09765625 -4.81640625 36.09765625 C-5.14640625 30.48765625 -5.47640625 24.87765625 -5.81640625 19.09765625 C-16.04640625 18.76765625 -26.27640625 18.43765625 -36.81640625 18.09765625 C-36.81640625 17.76765625 -36.81640625 17.43765625 -36.81640625 17.09765625 C-26.25640625 17.09765625 -15.69640625 17.09765625 -4.81640625 17.09765625 C-4.81640625 11.81765625 -4.81640625 6.53765625 -4.81640625 1.09765625 C-3.81640625 0.09765625 -3.81640625 0.09765625 0 0 Z M-2.81640625 1.09765625 C-2.81640625 6.37765625 -2.81640625 11.65765625 -2.81640625 17.09765625 C2.13359375 17.09765625 7.08359375 17.09765625 12.18359375 17.09765625 C12.18359375 11.81765625 12.18359375 6.53765625 12.18359375 1.09765625 C7.23359375 1.09765625 2.28359375 1.09765625 -2.81640625 1.09765625 Z " fill="#E4B86D" transform="translate(220.81640625,301.90234375)"/>
<path d="M0 0 C5.28 0 10.56 0 16 0 C16 5.28 16 10.56 16 16 C15.01 16 14.02 16 13 16 C12.87625 15.2575 12.7525 14.515 12.625 13.75 C12.1382925 11.03080536 12.1382925 11.03080536 10.875 8.9375 C9.79136997 6.5380335 10.1322436 5.42971792 11 3 C10.01 3.33 9.02 3.66 8 4 C7.9175 5.216875 7.835 6.43375 7.75 7.6875 C7.26241628 11.78465871 5.90489464 14.00139908 3 17 C1.68 16.67 0.36 16.34 -1 16 C-0.67 10.72 -0.34 5.44 0 0 Z " fill="#EF8610" transform="translate(235,199)"/>
<path d="M0 0 C6.6 0 13.2 0 20 0 C20.020625 2.949375 20.04125 5.89875 20.0625 8.9375 C20.071604 9.86812256 20.08070801 10.79874512 20.09008789 11.75756836 C20.09258545 12.48596924 20.09508301 13.21437012 20.09765625 13.96484375 C20.10551147 15.08814087 20.10551147 15.08814087 20.11352539 16.23413086 C20 18 20 18 19 19 C17.66956375 19.0983721 16.33406656 19.13078592 15 19.1328125 C14.195625 19.13410156 13.39125 19.13539063 12.5625 19.13671875 C11.716875 19.13285156 10.87125 19.12898438 10 19.125 C9.154375 19.12886719 8.30875 19.13273437 7.4375 19.13671875 C6.633125 19.13542969 5.82875 19.13414062 5 19.1328125 C4.2575 19.13168457 3.515 19.13055664 2.75 19.12939453 C1 19 1 19 0 18 C-0.08631874 16.65732587 -0.10706473 15.31025678 -0.09765625 13.96484375 C-0.09515869 13.23644287 -0.09266113 12.50804199 -0.09008789 11.75756836 C-0.08098389 10.8269458 -0.07187988 9.89632324 -0.0625 8.9375 C-0.041875 5.988125 -0.02125 3.03875 0 0 Z M3 2 C3 6.62 3 11.24 3 16 C7.62 16 12.24 16 17 16 C17 11.38 17 6.76 17 2 C12.38 2 7.76 2 3 2 Z " fill="#E6B22C" transform="translate(160,246)"/>
<path d="M0 0 C2.28313696 2.7750836 3.48412704 5.02906639 4.375 8.5 C5.74729681 13.36670208 7.5671912 17.90062805 9.55078125 22.546875 C12.52532989 29.63447877 15.24601506 36.82446568 18 44 C18.29116699 44.75555176 18.58233398 45.51110352 18.88232422 46.28955078 C19.71798524 48.46208048 20.54758205 50.63681934 21.375 52.8125 C21.62564209 53.46379883 21.87628418 54.11509766 22.13452148 54.78613281 C23.41021307 58.16607167 24.41560302 61.43246029 25 65 C23.515 64.505 23.515 64.505 22 64 C20.875 61.5 20.875 61.5 20 59 C19.505 58.505 19.505 58.505 19 58 C18.95919217 56.00041636 18.95745644 53.99954746 19 52 C18.34 52 17.68 52 17 52 C16.71125 50.906875 16.4225 49.81375 16.125 48.6875 C15.18106796 44.95986155 15.18106796 44.95986155 13 42 C12.5859375 39.73828125 12.5859375 39.73828125 12.375 37.3125 C12.30023438 36.50425781 12.22546875 35.69601562 12.1484375 34.86328125 C12.09945313 34.24839844 12.05046875 33.63351562 12 33 C10.35 32.34 8.7 31.68 7 31 C6.896875 30.0925 6.79375 29.185 6.6875 28.25 C5.26338688 18.39982105 5.26338688 18.39982105 1.41015625 9.37109375 C-0.49011256 6.17590491 -0.21445781 3.64578279 0 0 Z " fill="#D47A6B" transform="translate(346,254)"/>
<path d="M0 0 C0.33 0.66 0.66 1.32 1 2 C1.97582031 1.97679687 2.95164062 1.95359375 3.95703125 1.9296875 C5.22933594 1.91164062 6.50164062 1.89359375 7.8125 1.875 C9.07707031 1.85179687 10.34164063 1.82859375 11.64453125 1.8046875 C15 2 15 2 18 4 C18.34057617 5.87939453 18.34057617 5.87939453 18.29296875 8.1328125 C18.28172974 9.22166748 18.28172974 9.22166748 18.27026367 10.33251953 C18.24295166 11.25403809 18.21563965 12.17555664 18.1875 13.125 C18.0946875 17.518125 18.0946875 17.518125 18 22 C11.4 22 4.8 22 -2 22 C-2.33 16.39 -2.66 10.78 -3 5 C-2.34 5 -1.68 5 -1 5 C-0.67 3.35 -0.34 1.7 0 0 Z M1 4 C1 9.28 1 14.56 1 20 C5.95 20 10.9 20 16 20 C16 14.72 16 9.44 16 4 C11.05 4 6.1 4 1 4 Z " fill="#D58351" transform="translate(287,177)"/>
<path d="M0 0 C1.18613892 0.00785522 1.18613892 0.00785522 2.39624023 0.01586914 C3.16524658 0.0183667 3.93425293 0.02086426 4.7265625 0.0234375 C5.70939209 0.0325415 6.69222168 0.04164551 7.70483398 0.05102539 C12.37639648 0.08196289 12.37639648 0.08196289 17.14233398 0.11352539 C17.14233398 6.38352539 17.14233398 12.65352539 17.14233398 19.11352539 C10.14233398 20.11352539 10.14233398 20.11352539 7.14233398 18.11352539 C11.10233398 17.61852539 11.10233398 17.61852539 15.14233398 17.11352539 C15.14233398 12.16352539 15.14233398 7.21352539 15.14233398 2.11352539 C10.19233398 2.11352539 5.24233398 2.11352539 0.14233398 2.11352539 C0.14233398 7.72352539 0.14233398 13.33352539 0.14233398 19.11352539 C1.79233398 19.11352539 3.44233398 19.11352539 5.14233398 19.11352539 C5.14233398 19.44352539 5.14233398 19.77352539 5.14233398 20.11352539 C2.26733398 20.23852539 2.26733398 20.23852539 -0.85766602 20.11352539 C-2.85766602 18.11352539 -2.85766602 18.11352539 -3.08813477 14.23461914 C-3.08414178 12.67336063 -3.06937862 11.11210125 -3.04516602 9.55102539 C-3.04452148 8.75760742 -3.04387695 7.96418945 -3.04321289 7.14672852 C-2.98968923 0.18270541 -2.98968923 0.18270541 0 0 Z " fill="#E1A52D" transform="translate(186.857666015625,222.886474609375)"/>
<path d="M0 0 C2.97922593 -0.02683987 5.95821295 -0.04676037 8.9375 -0.0625 C9.78763672 -0.07087891 10.63777344 -0.07925781 11.51367188 -0.08789062 C12.32255859 -0.09111328 13.13144531 -0.09433594 13.96484375 -0.09765625 C14.7137085 -0.10289307 15.46257324 -0.10812988 16.23413086 -0.11352539 C18 0 18 0 19 1 C19.0983721 2.33043625 19.13078592 3.66593344 19.1328125 5 C19.13474609 6.2065625 19.13474609 6.2065625 19.13671875 7.4375 C19.13285156 8.283125 19.12898438 9.12875 19.125 10 C19.13080078 11.2684375 19.13080078 11.2684375 19.13671875 12.5625 C19.13542969 13.366875 19.13414062 14.17125 19.1328125 15 C19.13168457 15.7425 19.13055664 16.485 19.12939453 17.25 C19 19 19 19 18 20 C16.66956375 20.0983721 15.33406656 20.13078592 14 20.1328125 C13.195625 20.13410156 12.39125 20.13539063 11.5625 20.13671875 C10.716875 20.13285156 9.87125 20.12898438 9 20.125 C8.154375 20.12886719 7.30875 20.13273437 6.4375 20.13671875 C5.633125 20.13542969 4.82875 20.13414062 4 20.1328125 C3.2575 20.13168457 2.515 20.13055664 1.75 20.12939453 C0 20 0 20 -1 19 C-1.10007008 16.17743509 -1.13875598 13.3847681 -1.125 10.5625 C-1.12886719 9.77294922 -1.13273438 8.98339844 -1.13671875 8.16992188 C-1.12663067 2.25326133 -1.12663067 2.25326133 0 0 Z M1 2 C1 7.28 1 12.56 1 18 C5.95 18 10.9 18 16 18 C17.50156874 14.99686252 17.09281204 12.20932478 17.0625 8.875 C17.041875 6.60625 17.02125 4.3375 17 2 C11.72 2 6.44 2 1 2 Z " fill="#EBD479" transform="translate(140,272)"/>
<path d="M0 0 C0.66 0 1.32 0 2 0 C-0.25137308 8.35736975 -2.61133195 16.68084574 -5 25 C8.365 25.495 8.365 25.495 22 26 C20.68 22.37 19.36 18.74 18 15 C17.25 10.8125 17.25 10.8125 17 8 C17.66 8 18.32 8 19 8 C19.433125 9.36125 19.433125 9.36125 19.875 10.75 C20.98747068 14.19166475 20.98747068 14.19166475 23 18 C23.33 20.97 23.66 23.94 24 27 C13.44 27 2.88 27 -8 27 C-8 23.37 -8 19.74 -8 16 C-6.68 15.01 -5.36 14.02 -4 13 C-3.60539977 10.67624308 -3.27769908 8.3406065 -3 6 C-1.4375 2.5625 -1.4375 2.5625 0 0 Z " fill="#E89F77" transform="translate(280,243)"/>
<path d="M0 0 C6.27 0.33 12.54 0.66 19 1 C19 6.94 19 12.88 19 19 C17.02 19 15.04 19 13 19 C13 19.66 13 20.32 13 21 C12.34 21 11.68 21 11 21 C11 20.34 11 19.68 11 19 C10.44570312 19.15597656 9.89140625 19.31195313 9.3203125 19.47265625 C8.23363281 19.76462891 8.23363281 19.76462891 7.125 20.0625 C6.04605469 20.35833984 6.04605469 20.35833984 4.9453125 20.66015625 C3 21 3 21 1 20 C1 19.01 1 18.02 1 17 C-0.32 16.67 -1.64 16.34 -3 16 C-2.34 15.01 -1.68 14.02 -1 13 C-0.5396236 9.80193335 -0.5396236 9.80193335 -0.375 6.3125 C-0.25125 4.229375 -0.1275 2.14625 0 0 Z M3 2 C3 6.62 3 11.24 3 16 C7.90068963 17.63356321 12.85738476 17.05529694 18 17 C18 12.05 18 7.1 18 2 C13.05 2 8.1 2 3 2 Z " fill="#EDBE72" transform="translate(215,267)"/>
<path d="M0 0 C0.66 0.99 1.32 1.98 2 3 C1.67 3.66 1.34 4.32 1 5 C-0.175625 4.9690625 -0.175625 4.9690625 -1.375 4.9375 C-3.98114961 4.81315937 -3.98114961 4.81315937 -6 6 C-6 5.34 -6 4.68 -6 4 C-6.928125 4.495 -7.85625 4.99 -8.8125 5.5 C-12 7 -12 7 -15 7 C-15.33 8.32 -15.66 9.64 -16 11 C-13.69 11.33 -11.38 11.66 -9 12 C-8.67 13.32 -8.34 14.64 -8 16 C-5.61435923 15.42415568 -3.33317216 14.77772405 -1 14 C-0.01 15.485 -0.01 15.485 1 17 C0 18 0 18 -3.81640625 18.09765625 C-5.39846682 18.09098089 -6.98051159 18.07901875 -8.5625 18.0625 C-9.36880859 18.05798828 -10.17511719 18.05347656 -11.00585938 18.04882812 C-13.00393756 18.03700518 -15.00197783 18.01906914 -17 18 C-17 12.72 -17 7.44 -17 2 C-11.39 2 -5.78 2 0 2 C0 1.34 0 0.68 0 0 Z " fill="#F2A612" transform="translate(200,266)"/>
<path d="M0 0 C1.56125851 0.00399299 3.12251789 0.01875614 4.68359375 0.04296875 C5.47701172 0.04361328 6.27042969 0.04425781 7.08789062 0.04492188 C12.98083853 0.09021353 12.98083853 0.09021353 14.12109375 1.23046875 C14.2209635 4.07381923 14.25987256 6.88744038 14.24609375 9.73046875 C14.25189453 10.92736328 14.25189453 10.92736328 14.2578125 12.1484375 C14.24770142 18.10386108 14.24770142 18.10386108 13.12109375 19.23046875 C10.29692993 19.35709966 7.50814582 19.41567423 4.68359375 19.41796875 C3.89404297 19.43021484 3.10449219 19.44246094 2.29101562 19.45507812 C0.2330194 19.46034154 -1.82452634 19.3525316 -3.87890625 19.23046875 C-6.37101064 16.73836436 -6.13906286 15.22686087 -6.15234375 11.8203125 C-6.14460937 11.13066406 -6.136875 10.44101563 -6.12890625 9.73046875 C-6.13664063 9.04082031 -6.144375 8.35117188 -6.15234375 7.640625 C-6.13082322 2.12060822 -5.9306873 0.35237719 0 0 Z M-3.87890625 2.23046875 C-3.87890625 7.18046875 -3.87890625 12.13046875 -3.87890625 17.23046875 C1.40109375 17.23046875 6.68109375 17.23046875 12.12109375 17.23046875 C12.14171875 15.12671875 12.16234375 13.02296875 12.18359375 10.85546875 C12.19519531 9.67210937 12.20679688 8.48875 12.21875 7.26953125 C12.33575968 4.31125354 12.33575968 4.31125354 11.12109375 2.23046875 C6.17109375 2.23046875 1.22109375 2.23046875 -3.87890625 2.23046875 Z " fill="#DCA15D" transform="translate(238.87890625,231.76953125)"/>
<path d="M0 0 C1.64285685 3.28571371 1.22630526 6.89247533 1.25 10.5 C1.270625 11.28503906 1.29125 12.07007813 1.3125 12.87890625 C1.328125 15.15625 1.328125 15.15625 1 19 C-2.12343663 21.08229108 -2.53852922 21.23770457 -6.01171875 20.9765625 C-6.76904297 20.925 -7.52636719 20.8734375 -8.30664062 20.8203125 C-9.48516602 20.72363281 -9.48516602 20.72363281 -10.6875 20.625 C-11.48478516 20.56828125 -12.28207031 20.5115625 -13.10351562 20.453125 C-15.06973581 20.31183972 -17.03498824 20.15720094 -19 20 C-19.02683987 17.02077407 -19.04676037 14.04178705 -19.0625 11.0625 C-19.07087891 10.21236328 -19.07925781 9.36222656 -19.08789062 8.48632812 C-19.09111328 7.67744141 -19.09433594 6.86855469 -19.09765625 6.03515625 C-19.10289307 5.2862915 -19.10812988 4.53742676 -19.11352539 3.76586914 C-19 2 -19 2 -18 1 C-15.34912921 0.76221425 -12.71871877 0.57754265 -10.0625 0.4375 C-8.9497168 0.37272461 -8.9497168 0.37272461 -7.81445312 0.30664062 C-2.44580853 0 -2.44580853 0 0 0 Z M-17 3 C-17 8.28 -17 13.56 -17 19 C-11.72 19 -6.44 19 -1 19 C-1 13.72 -1 8.44 -1 3 C-6.28 3 -11.56 3 -17 3 Z " fill="#EFDD78" transform="translate(141,246)"/>
<path d="M0 0 C1.18851563 0.00902344 2.37703125 0.01804687 3.6015625 0.02734375 C4.51679688 0.03894531 5.43203125 0.05054688 6.375 0.0625 C6.375 0.3925 6.375 0.7225 6.375 1.0625 C-0.06 1.5575 -0.06 1.5575 -6.625 2.0625 C-6.955 7.6725 -7.285 13.2825 -7.625 19.0625 C-6.15289062 18.9903125 -4.68078125 18.918125 -3.1640625 18.84375 C-1.19271422 18.74987627 0.77864029 18.65613326 2.75 18.5625 C4.19826172 18.49095703 4.19826172 18.49095703 5.67578125 18.41796875 C10.44073858 18.19411169 15.20721996 18.00235766 19.9765625 17.90625 C20.77658691 17.88755859 21.57661133 17.86886719 22.40087891 17.84960938 C24.375 18.0625 24.375 18.0625 26.375 20.0625 C21.095 20.3925 15.815 20.7225 10.375 21.0625 C10.12450681 28.64436856 10.12450681 28.64436856 11.375 36.0625 C13.32663118 37.49887698 13.32663118 37.49887698 15.375 38.0625 C11.91 37.5675 11.91 37.5675 8.375 37.0625 C8.375 31.4525 8.375 25.8425 8.375 20.0625 C2.765 20.0625 -2.845 20.0625 -8.625 20.0625 C-8.625 13.7925 -8.625 7.5225 -8.625 1.0625 C-5.74084117 -0.37957941 -3.20778472 -0.03144887 0 0 Z " fill="#EBD18A" transform="translate(172.625,282.9375)"/>
<path d="M0 0 C27.72 0.99 27.72 0.99 56 2 C56 2.33 56 2.66 56 3 C38.51 3.33 21.02 3.66 3 4 C1.68 8.29 0.36 12.58 -1 17 C-1.33 17 -1.66 17 -2 17 C-2.27099712 10.76706632 -1.29643142 6.48215712 0 0 Z " fill="#E7C4A2" transform="translate(259,307)"/>
<path d="M0 0 C0.66 0 1.32 0 2 0 C2 5.94 2 11.88 2 18 C-3.28 18 -8.56 18 -14 18 C-13.98839844 19.62808594 -13.97679687 21.25617188 -13.96484375 22.93359375 C-13.95545861 25.10156135 -13.94635919 27.26953019 -13.9375 29.4375 C-13.92912109 30.50677734 -13.92074219 31.57605469 -13.91210938 32.67773438 C-13.89315369 38.87624228 -14.17936741 44.8549481 -15 51 C-15.33 51 -15.66 51 -16 51 C-16 39.45 -16 27.9 -16 16 C-10.39 16 -4.78 16 1 16 C0.67 10.72 0.34 5.44 0 0 Z " fill="#E3BC6E" transform="translate(232,198)"/>
<path d="M0 0 C1.98 0 3.96 0 6 0 C8.77676924 5.32661971 11.03535182 10.55935731 12.9375 16.25 C15.07057913 22.51184098 17.44127485 28.56839104 20.21484375 34.58203125 C21.07367662 37.22689467 20.96349141 38.43268439 20 41 C20 40.01 20 39.02 20 38 C19.34 38 18.68 38 18 38 C18 37.01 18 36.02 18 35 C17.34 35 16.68 35 16 35 C15.84144531 34.29875 15.68289063 33.5975 15.51953125 32.875 C14.1040122 27.11907722 12.42238733 22.61307881 9.07421875 17.7265625 C7.72257392 15.55410062 7.23771586 13.53563587 7 11 C6.67 11 6.34 11 6 11 C5.67 8.03 5.34 5.06 5 2 C3.35 1.67 1.7 1.34 0 1 C0 0.67 0 0.34 0 0 Z " fill="#DB7856" transform="translate(306,163)"/>
<path d="M0 0 C5.28 0 10.56 0 16 0 C16 5.61 16 11.22 16 17 C10.39 17 4.78 17 -1 17 C-1.020625 14.56625 -1.04125 12.1325 -1.0625 9.625 C-1.071604 8.86010254 -1.08070801 8.09520508 -1.09008789 7.30712891 C-1.11111111 2.22222222 -1.11111111 2.22222222 0 0 Z M1 1 C1 5.62 1 10.24 1 15 C4.85145043 16.92572521 9.80043252 16.04883218 14 16 C14 11.38 14 6.76 14 2 C12.02 2.33 10.04 2.66 8 3 C8 2.34 8 1.68 8 1 C5.69 1 3.38 1 1 1 Z " fill="#EAB120" transform="translate(166,285)"/>
<path d="M0 0 C3.63 0 7.26 0 11 0 C10.67 1.98 10.34 3.96 10 6 C10.66 6.33 11.32 6.66 12 7 C12.34375 9.328125 12.34375 9.328125 12.5 12.25 C12.71907555 16.30289766 13.46510251 19.26098971 15 23 C15.07646165 25.3320802 15.09143299 27.66845878 15 30 C12.29658696 25.94488044 11.24945267 21.70867614 9.875 17.0625 C9.45927734 15.7022168 9.45927734 15.7022168 9.03515625 14.31445312 C8.64263672 13.00057617 8.64263672 13.00057617 8.2421875 11.66015625 C8.0035498 10.86230713 7.76491211 10.06445801 7.51904297 9.24243164 C7 7 7 7 7 3 C-1.91 3 -10.82 3 -20 3 C-20 2.67 -20 2.34 -20 2 C-10.1 1.505 -10.1 1.505 0 1 C0 0.67 0 0.34 0 0 Z " fill="#D3734B" transform="translate(308,306)"/>
<path d="M0 0 C3.875 1.75 3.875 1.75 5 4 C4.71887936 6.00800456 4.38932033 8.01014051 4 10 C5.32 10.33 6.64 10.66 8 11 C7.67 12.32 7.34 13.64 7 15 C28.78 15.495 28.78 15.495 51 16 C51.33 15.34 51.66 14.68 52 14 C52 14.66 52 15.32 52 16 C52.66 16 53.32 16 54 16 C54.33 15.34 54.66 14.68 55 14 C55 14.99 55 15.98 55 17 C38.5 17 22 17 5 17 C0 5 0 5 0 0 Z " fill="#DD4922" transform="translate(320,319)"/>
<path d="M0 0 C0.66 0.33 1.32 0.66 2 1 C1.814375 2.19625 1.62875 3.3925 1.4375 4.625 C0.96946772 8.29775333 1.23786662 11.35869606 2 15 C2 15.99 2 16.98 2 18 C-1.59462331 20.25998595 -4.56595675 20.20868087 -8.75 20.125 C-9.92046875 20.10695313 -11.0909375 20.08890625 -12.296875 20.0703125 C-13.18890625 20.04710937 -14.0809375 20.02390625 -15 20 C-15.58863681 23.45267642 -16.14282027 26.89765367 -16.5625 30.375 C-16.706875 31.57125 -16.85125 32.7675 -17 34 C-17.33 34 -17.66 34 -18 34 C-19.02224111 29.01657457 -19.3632306 24.07454515 -19 19 C-16.94077598 16.94077598 -12.78291876 17.58572421 -9.9375 17.4375 C-9.17888672 17.39431641 -8.42027344 17.35113281 -7.63867188 17.30664062 C-5.75934562 17.20026367 -3.87969756 17.09960066 -2 17 C-1.90912109 15.53626953 -1.90912109 15.53626953 -1.81640625 14.04296875 C-1.73261719 12.77066406 -1.64882812 11.49835938 -1.5625 10.1875 C-1.48128906 8.92292969 -1.40007812 7.65835937 -1.31640625 6.35546875 C-1 3 -1 3 0 0 Z " fill="#EDA91C" transform="translate(201,285)"/>
<path d="M0 0 C6.6 0 13.2 0 20 0 C20 6.27 20 12.54 20 19 C19.34 18.67 18.68 18.34 18 18 C18.01160156 17.02417969 18.02320313 16.04835937 18.03515625 15.04296875 C18.04417969 13.77066406 18.05320313 12.49835938 18.0625 11.1875 C18.07410156 9.92292969 18.08570313 8.65835938 18.09765625 7.35546875 C18.16159116 4.00394763 18.16159116 4.00394763 17 1 C12.05 1 7.1 1 2 1 C2 6.28 2 11.56 2 17 C6.95 17.33 11.9 17.66 17 18 C17 18.33 17 18.66 17 19 C14.35409986 19.02684679 11.70846904 19.04676357 9.0625 19.0625 C8.30775391 19.07087891 7.55300781 19.07925781 6.77539062 19.08789062 C4.85005687 19.09652441 2.92464419 19.05224333 1 19 C0 18 0 18 -0.11352539 16.23413086 C-0.10828857 15.48526611 -0.10305176 14.73640137 -0.09765625 13.96484375 C-0.09515869 13.23644287 -0.09266113 12.50804199 -0.09008789 11.75756836 C-0.08098389 10.8269458 -0.07187988 9.89632324 -0.0625 8.9375 C-0.041875 5.988125 -0.02125 3.03875 0 0 Z " fill="#EEDD89" transform="translate(151,220)"/>
<path d="M0 0 C6.6 0 13.2 0 20 0 C20.020625 2.949375 20.04125 5.89875 20.0625 8.9375 C20.071604 9.86812256 20.08070801 10.79874512 20.09008789 11.75756836 C20.09258545 12.48596924 20.09508301 13.21437012 20.09765625 13.96484375 C20.10551147 15.08814087 20.10551147 15.08814087 20.11352539 16.23413086 C20 18 20 18 19 19 C17.66956375 19.0983721 16.33406656 19.13078592 15 19.1328125 C14.195625 19.13410156 13.39125 19.13539063 12.5625 19.13671875 C11.716875 19.13285156 10.87125 19.12898438 10 19.125 C9.154375 19.12886719 8.30875 19.13273437 7.4375 19.13671875 C6.633125 19.13542969 5.82875 19.13414062 5 19.1328125 C4.2575 19.13168457 3.515 19.13055664 2.75 19.12939453 C1 19 1 19 0 18 C-0.08631874 16.65732587 -0.10706473 15.31025678 -0.09765625 13.96484375 C-0.09515869 13.23644287 -0.09266113 12.50804199 -0.09008789 11.75756836 C-0.08098389 10.8269458 -0.07187988 9.89632324 -0.0625 8.9375 C-0.041875 5.988125 -0.02125 3.03875 0 0 Z M2 1 C1.97315321 3.64590014 1.95323643 6.29153096 1.9375 8.9375 C1.92912109 9.69224609 1.92074219 10.44699219 1.91210938 11.22460938 C1.90347559 13.14994313 1.94775667 15.07535581 2 17 C3.18852855 18.41774838 3.18852855 18.41774838 6.59765625 18.09765625 C8.08596867 18.0909822 9.57426432 18.07902183 11.0625 18.0625 C11.82111328 18.05798828 12.57972656 18.05347656 13.36132812 18.04882812 C15.24091871 18.0370068 17.12046899 18.01907078 19 18 C19.02684679 15.35409986 19.04676357 12.70846904 19.0625 10.0625 C19.07087891 9.30775391 19.07925781 8.55300781 19.08789062 7.77539062 C19.09652441 5.85005687 19.05224333 3.92464419 19 2 C17.81147145 0.58225162 17.81147145 0.58225162 14.40234375 0.90234375 C12.91403133 0.9090178 11.42573568 0.92097817 9.9375 0.9375 C8.79958008 0.94426758 8.79958008 0.94426758 7.63867188 0.95117188 C5.75908129 0.9629932 3.87953101 0.98092922 2 1 Z " fill="#F0DC91" transform="translate(160,246)"/>
<path d="M0 0 C5.28 0 10.56 0 16 0 C16.125 13.75 16.125 13.75 15 16 C10.05 16 5.1 16 0 16 C0 10.72 0 5.44 0 0 Z M3 1 C0.33108335 5.866848 1.20941312 9.70306788 2 15 C5.96 15 9.92 15 14 15 C15.22975177 7.78495794 15.22975177 7.78495794 13 1 C9.7 1 6.4 1 3 1 Z " fill="#F5C41D" transform="translate(141,274)"/>
<path d="M0 0 C0.74886475 0.00523682 1.49772949 0.01047363 2.26928711 0.01586914 C3.07817383 0.0190918 3.88706055 0.02231445 4.72045898 0.02563477 C5.5705957 0.03401367 6.42073242 0.04239258 7.29663086 0.05102539 C8.15063477 0.05553711 9.00463867 0.06004883 9.88452148 0.06469727 C12.00108749 0.07652166 14.11761771 0.0944577 16.23413086 0.11352539 C16.23413086 1.76352539 16.23413086 3.41352539 16.23413086 5.11352539 C15.90413086 4.12352539 15.57413086 3.13352539 15.23413086 2.11352539 C9.62413086 2.11352539 4.01413086 2.11352539 -1.76586914 2.11352539 C-1.43586914 7.39352539 -1.10586914 12.67352539 -0.76586914 18.11352539 C1.77319336 18.04842122 4.31225586 17.98331706 6.85131836 17.91821289 C9.23413086 18.11352539 9.23413086 18.11352539 11.23413086 20.11352539 C9.08836449 20.14038477 6.94250441 20.15985627 4.79663086 20.17602539 C3.60166992 20.18762695 2.40670898 20.19922852 1.17553711 20.21118164 C-1.76586914 20.11352539 -1.76586914 20.11352539 -2.76586914 19.11352539 C-2.86424124 17.78308914 -2.89665506 16.44759195 -2.89868164 15.11352539 C-2.8999707 14.30915039 -2.90125977 13.50477539 -2.90258789 12.67602539 C-2.8987207 11.83040039 -2.89485352 10.98477539 -2.89086914 10.11352539 C-2.89473633 9.26790039 -2.89860352 8.42227539 -2.90258789 7.55102539 C-2.90129883 6.74665039 -2.90000977 5.94227539 -2.89868164 5.11352539 C-2.89755371 4.37102539 -2.89642578 3.62852539 -2.89526367 2.86352539 C-2.71803237 0.46655557 -2.39926477 0.15424556 0 0 Z " fill="#E1B97B" transform="translate(218.765869140625,178.886474609375)"/>
<path d="M0 0 C2.84677614 2.84677614 3.66924505 6.32722314 4.9375 10.0625 C5.20256348 10.82876709 5.46762695 11.59503418 5.74072266 12.38452148 C7.53187963 17.57689511 9.29157544 22.77981384 11 28 C5.53925852 25.15091749 5.53925852 25.15091749 4.15625 22.19921875 C2.98794346 17.77511677 2.81023922 13.55425869 3 9 C2.34 9 1.68 9 1 9 C0.67 6.03 0.34 3.06 0 0 Z " fill="#D27D64" transform="translate(327,204)"/>
<path d="M0 0 C2.36354706 2.8559527 3.55441678 5.23842056 4.5 8.8125 C5.357972 11.91023047 6.2415328 14.51093478 7.625 17.4375 C9.47801649 22.23849728 9.73218911 26.89312343 10 32 C7 30 7 30 6.3984375 27.78125 C6.26695312 26.8634375 6.13546875 25.945625 6 25 C5.55432576 22.83069404 5.09523968 20.6641138 4.625 18.5 C4.39039063 17.3965625 4.15578125 16.293125 3.9140625 15.15625 C3.00309331 12.01068117 1.68196453 9.78153137 0 7 C-0.1875 3.1875 -0.1875 3.1875 0 0 Z " fill="#D83F21" transform="translate(346,254)"/>
<path d="M0 0 C0.66 0.33 1.32 0.66 2 1 C3.59447464 1.08400529 5.19240545 1.10727467 6.7890625 1.09765625 C8.20058594 1.09282227 8.20058594 1.09282227 9.640625 1.08789062 C10.62546875 1.07951172 11.6103125 1.07113281 12.625 1.0625 C14.11386719 1.05573242 14.11386719 1.05573242 15.6328125 1.04882812 C18.0886016 1.03702145 20.54427104 1.020554 23 1 C22.67 2.65 22.34 4.3 22 6 C19.69 6.33 17.38 6.66 15 7 C15 6.01 15 5.02 15 4 C12.36 3.67 9.72 3.34 7 3 C7 3.66 7 4.32 7 5 C5.35 5 3.7 5 2 5 C1.67 5.66 1.34 6.32 1 7 C-1 4 -1 4 -0.625 1.8125 C-0.41875 1.214375 -0.2125 0.61625 0 0 Z " fill="#EE8213" transform="translate(233,249)"/>
<path d="M0 0 C1.1446875 0.12375 1.1446875 0.12375 2.3125 0.25 C2.3125 0.91 2.3125 1.57 2.3125 2.25 C2.9725 2.25 3.6325 2.25 4.3125 2.25 C4.3125 5.88 4.3125 9.51 4.3125 13.25 C1.206033 10.143533 0.62160218 6.41532512 -0.6875 2.25 C-2.3375 7.2 -3.9875 12.15 -5.6875 17.25 C-6.0175 17.25 -6.3475 17.25 -6.6875 17.25 C-6.60016027 15.16589342 -6.49197722 13.08265331 -6.375 11 C-6.31699219 9.83984375 -6.25898438 8.6796875 -6.19921875 7.484375 C-5.51766515 3.17654004 -4.60287126 0.42817407 0 0 Z " fill="#E0955F" transform="translate(288.6875,223.75)"/>
<path d="M0 0 C0.99386719 0.00902344 1.98773438 0.01804688 3.01171875 0.02734375 C4.15060547 0.04474609 4.15060547 0.04474609 5.3125 0.0625 C5.3125 0.3925 5.3125 0.7225 5.3125 1.0625 C1.6825 1.7225 -1.9475 2.3825 -5.6875 3.0625 C-6.0175 6.0325 -6.3475 9.0025 -6.6875 12.0625 C-5.6975 12.7225 -4.7075 13.3825 -3.6875 14.0625 C-3.6875 14.7225 -3.6875 15.3825 -3.6875 16.0625 C-0.0575 16.0625 3.5725 16.0625 7.3125 16.0625 C7.3125 16.3925 7.3125 16.7225 7.3125 17.0625 C2.0325 17.0625 -3.2475 17.0625 -8.6875 17.0625 C-8.6875 11.7825 -8.6875 6.5025 -8.6875 1.0625 C-5.53819107 0.01273036 -3.29935544 -0.03881595 0 0 Z " fill="#E77F1E" transform="translate(261.6875,180.9375)"/>
<path d="M0 0 C0.66 0 1.32 0 2 0 C-0.25131389 8.35715006 -2.60785814 16.68214634 -5 25 C-5.66 25 -6.32 25 -7 25 C-7.33 25.66 -7.66 26.32 -8 27 C-8.10815225 25.23050905 -8.18566083 23.45912513 -8.25 21.6875 C-8.31960938 20.20830078 -8.31960938 20.20830078 -8.390625 18.69921875 C-8 16 -8 16 -6.01953125 14.3515625 C-5.35308594 13.90554688 -4.68664062 13.45953125 -4 13 C-3.60539977 10.67624308 -3.27769908 8.3406065 -3 6 C-1.4375 2.5625 -1.4375 2.5625 0 0 Z " fill="#DF975F" transform="translate(280,243)"/>
<path d="M0 0 C0.33 0 0.66 0 1 0 C1 4.95 1 9.9 1 15 C3.05270463 13.15811388 3.05270463 13.15811388 4 11 C5.32 11.33 6.64 11.66 8 12 C7.67 12.99 7.34 13.98 7 15 C9.97 15.33 12.94 15.66 16 16 C16 11.71 16 7.42 16 3 C16.33 3 16.66 3 17 3 C17 7.62 17 12.24 17 17 C13.86512696 18.56743652 10.73004358 17.56042041 7.375 17.0625 C3.724375 16.5365625 3.724375 16.5365625 0 16 C0 10.72 0 5.44 0 0 Z " fill="#EDBB23" transform="translate(153,221)"/>
<path d="M0 0 C2 2 2 2 2.22705078 3.87939453 C2.21657715 4.62302246 2.20610352 5.36665039 2.1953125 6.1328125 C2.18886719 6.93847656 2.18242187 7.74414062 2.17578125 8.57421875 C2.15902344 9.41597656 2.14226562 10.25773437 2.125 11.125 C2.11597656 11.97449219 2.10695312 12.82398438 2.09765625 13.69921875 C2.07405647 15.79959884 2.03818483 17.89983444 2 20 C1.34 20 0.68 20 0 20 C0 14.72 0 9.44 0 4 C-5.61 4 -11.22 4 -17 4 C-17 3.67 -17 3.34 -17 3 C-11.06 2.505 -11.06 2.505 -5 2 C-5 1.67 -5 1.34 -5 1 C-2.625 0.375 -2.625 0.375 0 0 Z " fill="#DE8C27" transform="translate(234,264)"/>
<path d="M0 0 C1.18613892 0.00785522 1.18613892 0.00785522 2.39624023 0.01586914 C3.67724609 0.02070313 3.67724609 0.02070313 4.98413086 0.02563477 C5.88196289 0.03401367 6.77979492 0.04239258 7.70483398 0.05102539 C8.6065332 0.05553711 9.50823242 0.06004883 10.43725586 0.06469727 C12.67234712 0.07652315 14.90730835 0.09300319 17.14233398 0.11352539 C17.14233398 0.44352539 17.14233398 0.77352539 17.14233398 1.11352539 C11.20233398 1.11352539 5.26233398 1.11352539 -0.85766602 1.11352539 C-0.52766602 7.05352539 -0.19766602 12.99352539 0.14233398 19.11352539 C1.79233398 19.11352539 3.44233398 19.11352539 5.14233398 19.11352539 C5.14233398 19.44352539 5.14233398 19.77352539 5.14233398 20.11352539 C2.26733398 20.23852539 2.26733398 20.23852539 -0.85766602 20.11352539 C-2.85766602 18.11352539 -2.85766602 18.11352539 -3.08813477 14.23461914 C-3.08414178 12.67336063 -3.06937862 11.11210125 -3.04516602 9.55102539 C-3.04452148 8.75760742 -3.04387695 7.96418945 -3.04321289 7.14672852 C-2.98968923 0.18270541 -2.98968923 0.18270541 0 0 Z " fill="#E5CE99" transform="translate(186.857666015625,222.886474609375)"/>
<path d="M0 0 C10.75 -0.125 10.75 -0.125 13 1 C11.25 5.875 11.25 5.875 9 7 C9 5.68 9 4.36 9 3 C7.68 3.33 6.36 3.66 5 4 C5 3.34 5 2.68 5 2 C2.8206856 3.75864246 2.06313581 4.69396 1.48828125 7.48046875 C1.43027344 8.37378906 1.37226563 9.26710938 1.3125 10.1875 C1.24675781 11.08855469 1.18101562 11.98960937 1.11328125 12.91796875 C1.05720703 13.94857422 1.05720703 13.94857422 1 15 C0.67 15 0.34 15 0 15 C0 10.05 0 5.1 0 0 Z " fill="#F29C0E" transform="translate(201,251)"/>
<path d="M0 0 C0.77730469 0.05800781 1.55460938 0.11601562 2.35546875 0.17578125 C3.14566406 0.22089844 3.93585938 0.26601563 4.75 0.3125 C5.34167969 0.37050781 5.93335938 0.42851562 6.54296875 0.48828125 C6.87296875 2.13828125 7.20296875 3.78828125 7.54296875 5.48828125 C2.59296875 5.48828125 -2.35703125 5.48828125 -7.45703125 5.48828125 C-2.45703125 0.48828125 -2.45703125 0.48828125 0 0 Z " fill="#F09212" transform="translate(224.45703125,261.51171875)"/>
<path d="M0 0 C0.66 -0.165 1.32 -0.33 2 -0.5 C4 -1 4 -1 6 0 C7.051875 -0.185625 8.10375 -0.37125 9.1875 -0.5625 C13.57941068 -1.06648975 15.88760711 -0.42674855 20 1 C20 1.33 20 1.66 20 2 C11.09 2 2.18 2 -7 2 C-7 1.34 -7 0.68 -7 0 C-2.25 -1.125 -2.25 -1.125 0 0 Z " fill="#EFA114" transform="translate(194,317)"/>
<path d="M0 0 C0.33 0 0.66 0 1 0 C1 4.29 1 8.58 1 13 C5.95 13 10.9 13 16 13 C16 13.33 16 13.66 16 14 C11.05 14 6.1 14 1 14 C1 19.61 1 25.22 1 31 C0.67 31 0.34 31 0 31 C0 25.39 0 19.78 0 14 C-1.98 14 -3.96 14 -6 14 C-6 13.67 -6 13.34 -6 13 C-4.02 13 -2.04 13 0 13 C0 8.71 0 4.42 0 0 Z " fill="#D19549" transform="translate(234,184)"/>
<path d="M0 0 C2 1 2 1 3.125 3.25 C4.00513321 6.01613295 4.1645438 8.12048351 4 11 C5.32 10.67 6.64 10.34 8 10 C8 10.66 8 11.32 8 12 C8.66 12.33 9.32 12.66 10 13 C9.67 15.31 9.34 17.62 9 20 C8.01 19.34 7.02 18.68 6 18 C5.8125 15.375 5.8125 15.375 6 13 C5.01 13 4.02 13 3 13 C2.49487756 11.39743892 1.99608373 9.79288208 1.5 8.1875 C1.2215625 7.29417969 0.943125 6.40085938 0.65625 5.48046875 C0 3 0 3 0 0 Z " fill="#DF641C" transform="translate(293,238)"/>
<path d="M0 0 C2.81379388 2.81379388 3.81213054 6.21813533 5.1875 9.875 C5.47302734 10.59558594 5.75855469 11.31617188 6.05273438 12.05859375 C7.47811319 15.82492317 8.24642663 18.15902534 7 22 C6.34 21.67 5.68 21.34 5 21 C4.855625 19.865625 4.71125 18.73125 4.5625 17.5625 C4.376875 16.386875 4.19125 15.21125 4 14 C3.01 13.34 2.02 12.68 1 12 C0.48828125 9.1796875 0.48828125 9.1796875 0.3125 5.875 C0.24675781 4.77929688 0.18101562 3.68359375 0.11328125 2.5546875 C0.05720703 1.29011719 0.05720703 1.29011719 0 0 Z " fill="#D87B63" transform="translate(338,233)"/>
<path d="M0 0 C0.33 0 0.66 0 1 0 C1 4.95 1 9.9 1 15 C-4.22512279 16.46670113 -8.5814234 17.22577402 -14 17 C-14 16.01 -14 15.02 -14 14 C-9.71 14 -5.42 14 -1 14 C-0.67 9.38 -0.34 4.76 0 0 Z " fill="#E6A41F" transform="translate(201,225)"/>
<path d="M0 0 C0.99 0.33 1.98 0.66 3 1 C3.99 1 4.98 1 6 1 C6.33 1.99 6.66 2.98 7 4 C3.7 4 0.4 4 -3 4 C-3.33 9.94 -3.66 15.88 -4 22 C-4.33 22 -4.66 22 -5 22 C-5.27616405 19.2503666 -5.52164742 16.50366342 -5.75 13.75 C-5.83121094 12.97269531 -5.91242188 12.19539063 -5.99609375 11.39453125 C-6.44250073 5.59124047 -6.44250073 5.59124047 -4.140625 2.515625 C-2 1 -2 1 0 0 Z " fill="#EF9614" transform="translate(220,297)"/>
<path d="M0 0 C0.66 0.33 1.32 0.66 2 1 C1.814375 2.19625 1.62875 3.3925 1.4375 4.625 C0.96946772 8.29775333 1.23786662 11.35869606 2 15 C2 15.99 2 16.98 2 18 C-1.63423209 20.32590854 -4.77088331 20.16265833 -9 20 C-9 19.67 -9 19.34 -9 19 C-6.69 18.34 -4.38 17.68 -2 17 C-1.93941406 16.02417969 -1.87882813 15.04835938 -1.81640625 14.04296875 C-1.73261719 12.77066406 -1.64882812 11.49835938 -1.5625 10.1875 C-1.48128906 8.92292969 -1.40007812 7.65835937 -1.31640625 6.35546875 C-1 3 -1 3 0 0 Z " fill="#EAA017" transform="translate(201,285)"/>
<path d="M0 0 C0.66 0 1.32 0 2 0 C2 0.99 2 1.98 2 3 C2.66 3 3.32 3 4 3 C4.33 5.31 4.66 7.62 5 10 C2.03 9.505 2.03 9.505 -1 9 C-2.25541557 5.23375329 -1.37061958 3.62811066 0 0 Z " fill="#E3521E" transform="translate(322,198)"/>
<path d="M0 0 C0.99 0.495 0.99 0.495 2 1 C2 2.32 2 3.64 2 5 C2.99 5.33 3.98 5.66 5 6 C5.144375 7.134375 5.28875 8.26875 5.4375 9.4375 C5.61171478 12.80777201 5.61171478 12.80777201 7 14 C7.04063832 15.66617115 7.042721 17.33388095 7 19 C6.67 18.01 6.34 17.02 6 16 C5.01 16 4.02 16 3 16 C2.01879536 12.94736336 2.01879536 11.05263664 3 8 C2.34 8 1.68 8 1 8 C0.67 5.36 0.34 2.72 0 0 Z " fill="#DE3524" transform="translate(366,313)"/>
<path d="M0 0 C5.61 0 11.22 0 17 0 C17 6.27 17 12.54 17 19 C16.34 18.67 15.68 18.34 15 18 C15.01160156 17.02417969 15.02320313 16.04835937 15.03515625 15.04296875 C15.04417969 13.77066406 15.05320313 12.49835938 15.0625 11.1875 C15.07410156 9.92292969 15.08570313 8.65835938 15.09765625 7.35546875 C15.16159116 4.00394763 15.16159116 4.00394763 14 1 C9.38 1 4.76 1 0 1 C0 0.67 0 0.34 0 0 Z " fill="#ECC86B" transform="translate(154,220)"/>
<path d="M0 0 C4.45514656 4.03084689 6.30868049 8.05465225 7 14 C6.01 13.67 5.02 13.34 4 13 C4 12.34 4 11.68 4 11 C3.34 11 2.68 11 2 11 C2 10.01 2 9.02 2 8 C1.34 8 0.68 8 0 8 C-0.98120464 4.94736336 -0.98120464 3.05263664 0 0 Z " fill="#E55618" transform="translate(314,179)"/>
<path d="M0 0 C0.66 0 1.32 0 2 0 C1.71390693 1.39698636 1.42083095 2.7925433 1.125 4.1875 C0.96257812 4.96480469 0.80015625 5.74210937 0.6328125 6.54296875 C0 9 0 9 -2 14 C-5.96 14 -9.92 14 -14 14 C-14 13.67 -14 13.34 -14 13 C-8.06 12.505 -8.06 12.505 -2 12 C-2.061875 10.4221875 -2.061875 10.4221875 -2.125 8.8125 C-2.00852125 5.25989827 -1.52791932 3.15133359 0 0 Z " fill="#D99F61" transform="translate(255,324)"/>
<path d="M0 0 C1.98 0 3.96 0 6 0 C8.53309233 4.64203897 10.46515599 8.65155992 11 14 C10.01 14.495 10.01 14.495 9 15 C8.34 13.68 7.68 12.36 7 11 C6.67 11 6.34 11 6 11 C5.67 8.03 5.34 5.06 5 2 C3.35 1.67 1.7 1.34 0 1 C0 0.67 0 0.34 0 0 Z " fill="#D38358" transform="translate(306,163)"/>
<path d="M0 0 C2.9375 1 2.9375 1 6 3 C6.86518243 5.75878925 6.90393194 8.06992426 7 11 C5.35 11.33 3.7 11.66 2 12 C2.66 11.67 3.32 11.34 4 11 C4.65555119 8.47266765 4.65555119 8.47266765 5 6 C4.01 6.33 3.02 6.66 2 7 C0.5393715 4.35261084 0 3.10551666 0 0 Z " fill="#E23C1C" transform="translate(352,284)"/>
<path d="M0 0 C2.38017224 2.87881167 3.61847965 5.3483148 4.625 8.9375 C4.86476563 9.77152344 5.10453125 10.60554688 5.3515625 11.46484375 C5.99090126 13.9644272 6.51940241 16.46552782 7 19 C6.67 18.01 6.34 17.02 6 16 C5.34 16 4.68 16 4 16 C3.525625 14.88625 3.05125 13.7725 2.5625 12.625 C1.74693537 10.73289006 0.92143645 8.84287291 0 7 C-0.04022391 4.6670134 -0.04320247 2.33293334 0 0 Z " fill="#D57F70" transform="translate(346,254)"/>
<path d="M0 0 C0.33 0 0.66 0 1 0 C1 5.94 1 11.88 1 18 C-6 19 -6 19 -9 17 C-6.03 16.67 -3.06 16.34 0 16 C0 10.72 0 5.44 0 0 Z " fill="#E0B969" transform="translate(203,224)"/>
<path d="M0 0 C0.33 0 0.66 0 1 0 C1 1.98 1 3.96 1 6 C-6.19172157 7.07875823 -12.78194245 6.7938642 -20 6 C-20 5.67 -20 5.34 -20 5 C-14.06 4.67 -8.12 4.34 -2 4 C-1.34 2.68 -0.68 1.36 0 0 Z " fill="#E5831B" transform="translate(252,330)"/>
<path d="M0 0 C2.31 0.33 4.62 0.66 7 1 C7 2.65 7 4.3 7 6 C4.69 6 2.38 6 0 6 C0 4.02 0 2.04 0 0 Z " fill="#F3A908" transform="translate(184,277)"/>
<path d="M0 0 C0.99 0.495 0.99 0.495 2 1 C2 1.66 2 2.32 2 3 C2.99 3.33 3.98 3.66 5 4 C5.73046875 5.84765625 5.73046875 5.84765625 6.1875 8.0625 C6.34605469 8.79597656 6.50460937 9.52945313 6.66796875 10.28515625 C6.83232422 11.13400391 6.83232422 11.13400391 7 12 C4.0625 10.5 4.0625 10.5 1 8 C0.16104266 5.23513429 0.09752026 2.92560787 0 0 Z " fill="#DA6E4F" transform="translate(331,220)"/>
<path d="M0 0 C3.81248426 -0.02887236 7.6249407 -0.04675492 11.4375 -0.0625 C12.52611328 -0.07087891 13.61472656 -0.07925781 14.73632812 -0.08789062 C15.77080078 -0.09111328 16.80527344 -0.09433594 17.87109375 -0.09765625 C18.82943115 -0.10289307 19.78776855 -0.10812988 20.77514648 -0.11352539 C23 0 23 0 24 1 C24.04063832 2.66617115 24.042721 4.33388095 24 6 C23.67 5.01 23.34 4.02 23 3 C20.21091836 1.95275422 17.41133217 1.82350895 14.453125 1.68359375 C13.60878906 1.64169922 12.76445312 1.59980469 11.89453125 1.55664062 C11.02183594 1.51732422 10.14914062 1.47800781 9.25 1.4375 C7.91775391 1.37272461 7.91775391 1.37272461 6.55859375 1.30664062 C4.37254037 1.20086385 2.18637911 1.09877454 0 1 C0 0.67 0 0.34 0 0 Z " fill="#E06221" transform="translate(288,164)"/>
<path d="M0 0 C-0.66 1.32 -1.32 2.64 -2 4 C-5.63 3.67 -9.26 3.34 -13 3 C-9.06071505 0.04553629 -4.84453131 -2.42226565 0 0 Z " fill="#E97615" transform="translate(273,194)"/>
<path d="M0 0 C0.99 0.33 1.98 0.66 3 1 C2.67 3.97 2.34 6.94 2 10 C1.34 10 0.68 10 0 10 C-0.33 10.66 -0.66 11.32 -1 12 C-1.02687279 10.18757948 -1.04633715 8.37504767 -1.0625 6.5625 C-1.07410156 5.55316406 -1.08570313 4.54382813 -1.09765625 3.50390625 C-1 1 -1 1 0 0 Z " fill="#DD863A" transform="translate(273,258)"/>
<path d="M0 0 C0.66 0 1.32 0 2 0 C2.69670416 1.78810766 3.38211189 3.58062052 4.0625 5.375 C4.63677734 6.87160156 4.63677734 6.87160156 5.22265625 8.3984375 C6 11 6 11 5 13 C2.21366246 11.60683123 2.06507306 9.84019484 1 7 C0.67 6.67 0.34 6.34 0 6 C-0.04080783 4.00041636 -0.04254356 1.99954746 0 0 Z " fill="#D47C72" transform="translate(365,306)"/>
<path d="M0 0 C0.66 0 1.32 0 2 0 C2.70133599 1.57725347 3.385583 3.16211333 4.0625 4.75 C4.44535156 5.63171875 4.82820313 6.5134375 5.22265625 7.421875 C6.04600008 10.15256309 5.9773992 11.36901347 5 14 C5 13.01 5 12.02 5 11 C4.34 11 3.68 11 3 11 C3 10.01 3 9.02 3 8 C2.34 8 1.68 8 1 8 C-0.35439668 5.29120665 -0.06501451 2.99066732 0 0 Z " fill="#D88063" transform="translate(321,190)"/>
<path d="M0 0 C0.99 0.33 1.98 0.66 3 1 C3.02694851 2.95825873 3.04637218 4.91662226 3.0625 6.875 C3.07410156 7.96554687 3.08570313 9.05609375 3.09765625 10.1796875 C3 13 3 13 2 15 C1.01 14.67 0.02 14.34 -1 14 C-0.34 14 0.32 14 1 14 C1.14975239 6.94348748 1.14975239 6.94348748 0 0 Z " fill="#F3BE10" transform="translate(154,275)"/>
<path d="M0 0 C2.22141711 4.10107774 5 9.26557671 5 14 C4.01 14.33 3.02 14.66 2 15 C1.855625 13.865625 1.71125 12.73125 1.5625 11.5625 C1.38828522 8.19222799 1.38828522 8.19222799 0 7 C-0.04092937 4.66702567 -0.04241723 2.33294775 0 0 Z " fill="#D36F69" transform="translate(371,319)"/>
<path d="M0 0 C2.34914492 2.34914492 2.73140357 3.95679446 3.625 7.125 C3.88539063 8.03507812 4.14578125 8.94515625 4.4140625 9.8828125 C4.70410156 10.93082031 4.70410156 10.93082031 5 12 C4.01 12.495 4.01 12.495 3 13 C3 11.68 3 10.36 3 9 C2.34 9 1.68 9 1 9 C0.67 6.03 0.34 3.06 0 0 Z " fill="#D77C70" transform="translate(355,278)"/>
<path d="M0 0 C0.66 0.33 1.32 0.66 2 1 C1.67 6.28 1.34 11.56 1 17 C-0.32 16.67 -1.64 16.34 -3 16 C-2.34 15.01 -1.68 14.02 -1 13 C-0.5396236 9.80193335 -0.5396236 9.80193335 -0.375 6.3125 C-0.30023438 5.13300781 -0.22546875 3.95351563 -0.1484375 2.73828125 C-0.09945312 1.83464844 -0.05046875 0.93101562 0 0 Z " fill="#EA9A17" transform="translate(215,267)"/>
<path d="M0 0 C0.99 0.33 1.98 0.66 3 1 C3 4.63 3 8.26 3 12 C0.50494038 9.50494038 0.64051624 8.32671112 0.375 4.875 C0.30023438 3.96492187 0.22546875 3.05484375 0.1484375 2.1171875 C0.09945313 1.41851562 0.05046875 0.71984375 0 0 Z " fill="#DD8450" transform="translate(290,225)"/>
<path d="M0 0 C1.65 0 3.3 0 5 0 C4.60196439 2.88575819 4.20990931 3.82189513 1.9375 5.75 C1.298125 6.1625 0.65875 6.575 0 7 C0 4.69 0 2.38 0 0 Z " fill="#F3940C" transform="translate(219,217)"/>
<path d="M0 0 C3 2 3 2 3.51171875 4.1640625 C3.56972656 4.97617188 3.62773437 5.78828125 3.6875 6.625 C3.75324219 7.44226563 3.81898438 8.25953125 3.88671875 9.1015625 C3.92410156 9.72804687 3.96148437 10.35453125 4 11 C1 9 1 9 0.48828125 6.8359375 C0.43027344 6.02382812 0.37226563 5.21171875 0.3125 4.375 C0.24675781 3.55773437 0.18101562 2.74046875 0.11328125 1.8984375 C0.07589844 1.27195313 0.03851563 0.64546875 0 0 Z " fill="#D44C29" transform="translate(335,230)"/>
<path d="M0 0 C0.99 1.32 1.98 2.64 3 4 C-1.10457614 6.98514628 -3.97745369 7.2954439 -9 7 C-9 6.67 -9 6.34 -9 6 C-7.88625 5.7525 -6.7725 5.505 -5.625 5.25 C-1.95384802 4.38994661 -1.95384802 4.38994661 -0.5625 1.875 C-0.376875 1.25625 -0.19125 0.6375 0 0 Z " fill="#F2A10C" transform="translate(201,298)"/>
<path d="M0 0 C2 1 2 1 3.125 3.125 C4.15945114 6.52391089 4.1385722 9.46640886 4 13 C1.99706653 9.99559979 1.50728374 8.29006055 0.875 4.8125 C0.70742188 3.91144531 0.53984375 3.01039063 0.3671875 2.08203125 C0.24601562 1.39496094 0.12484375 0.70789063 0 0 Z " fill="#E3A879" transform="translate(293,238)"/>
<path d="M0 0 C0.66 0 1.32 0 2 0 C3.57312496 3.67062491 4.14440048 5.44302674 3.125 9.375 C2.75375 10.24125 2.3825 11.1075 2 12 C1.67 12 1.34 12 1 12 C0.67 8.04 0.34 4.08 0 0 Z " fill="#F07F13" transform="translate(252,232)"/>
<path d="M0 0 C0.99 0 1.98 0 3 0 C3.33 0.99 3.66 1.98 4 3 C3.34 3 2.68 3 2 3 C2 3.66 2 4.32 2 5 C0.68 5 -0.64 5 -2 5 C-1.125 1.125 -1.125 1.125 0 0 Z " fill="#FCAE0E" transform="translate(175,296)"/>
<path d="M0 0 C0.66 0 1.32 0 2 0 C1.96744792 1.98567708 1.93489583 3.97135417 1.90234375 5.95703125 C1.91736783 8.20305461 1.91736783 8.20305461 3 11 C2.01 11.33 1.02 11.66 0 12 C0 8.04 0 4.08 0 0 Z " fill="#F48909" transform="translate(236,266)"/>
<path d="M0 0 C0.99 0.495 0.99 0.495 2 1 C2 2.32 2 3.64 2 5 C2.99 5.33 3.98 5.66 5 6 C4.67 7.32 4.34 8.64 4 10 C4 9.34 4 8.68 4 8 C3.01 8 2.02 8 1 8 C0.67 5.36 0.34 2.72 0 0 Z " fill="#CD3829" transform="translate(366,313)"/>
<path d="M0 0 C1.5 1.125 1.5 1.125 3 3 C3.1875 6.1875 3.1875 6.1875 3 9 C1.5 7.875 1.5 7.875 0 6 C-0.1875 2.8125 -0.1875 2.8125 0 0 Z " fill="#CF6250" transform="translate(359,290)"/>
<path d="M0 0 C2.31 0.33 4.62 0.66 7 1 C7 1.66 7 2.32 7 3 C5.35 3 3.7 3 2 3 C1.67 3.66 1.34 4.32 1 5 C0.34 4.01 -0.32 3.02 -1 2 C-0.67 1.34 -0.34 0.68 0 0 Z " fill="#F48809" transform="translate(233,251)"/>
<path d="M0 0 C3.60654039 2.40436026 3.85452932 3.94679607 5 8 C4.34 8.66 3.68 9.32 3 10 C0.96564469 6.27034861 0 4.33094958 0 0 Z " fill="#DB6626" transform="translate(293,234)"/>
<path d="M0 0 C2.6855594 2.6855594 3.06049974 5.37621328 4 9 C3.01 9 2.02 9 1 9 C0.67 6.03 0.34 3.06 0 0 Z " fill="#D9866D" transform="translate(327,204)"/>
<path d="M0 0 C2 2 2 2 2.125 4.625 C2.08375 5.40875 2.0425 6.1925 2 7 C0.35 7.66 -1.3 8.32 -3 9 C-2.01 6.03 -1.02 3.06 0 0 Z " fill="#EF8A0E" transform="translate(236,312)"/>
<path d="M0 0 C2 3.75 2 3.75 2 6 C3.65 6 5.3 6 7 6 C7 6.33 7 6.66 7 7 C4.125 7.125 4.125 7.125 1 7 C0.34 6.34 -0.32 5.68 -1 5 C-0.625 2.375 -0.625 2.375 0 0 Z " fill="#E9D9B5" transform="translate(185,236)"/>
<path d="M0 0 C1.32 0.33 2.64 0.66 4 1 C3.67 2.65 3.34 4.3 3 6 C2.01 6 1.02 6 0 6 C0 4.02 0 2.04 0 0 Z " fill="#EA4F17" transform="translate(324,329)"/>
<path d="M0 0 C0.66 0 1.32 0 2 0 C2 0.99 2 1.98 2 3 C2.66 3 3.32 3 4 3 C4.33 4.32 4.66 5.64 5 7 C4.01 7 3.02 7 2 7 C1.34 4.69 0.68 2.38 0 0 Z " fill="#D15C47" transform="translate(350,270)"/>
<path d="M0 0 C1.98 0.99 1.98 0.99 4 2 C4 4.64 4 7.28 4 10 C3.67 10 3.34 10 3 10 C2.67 8.02 2.34 6.04 2 4 C1.34 4 0.68 4 0 4 C0 2.68 0 1.36 0 0 Z " fill="#E4431E" transform="translate(339,245)"/>
</svg>
