<svg width="53" height="53" viewBox="0 0 53 53" fill="none" xmlns="http://www.w3.org/2000/svg">
<path d="M49 0H3.5V3.5H0V43H3.5V46H49V43H52.5V3.5H49V0Z" fill="#828C98"/>
<path d="M0 43H3.5V46H49V43H52.5V49.5H49V53H3.5V49.5H0V43Z" fill="#4B5362"/>
<path d="M52.5 43V49.5H49V43H52.5Z" fill="#2C3340"/>
<path d="M10.3333 10C21.3333 10 32.3333 10 43.6667 10C43.6667 11.0871 43.6667 12.1741 43.6667 13.2941C44.7667 13.2941 45.8667 13.2941 47 13.2941C47 19.8165 47 26.3388 47 33.0588C45.9 33.0588 44.8 33.0588 43.6667 33.0588C43.6667 34.1459 43.6667 35.2329 43.6667 36.3529C38.1667 36.3529 32.6667 36.3529 27 36.3529C27 37.44 27 38.5271 27 39.6471C25.9 39.6471 24.8 39.6471 23.6667 39.6471C23.6667 40.7341 23.6667 41.8212 23.6667 42.9412C21.4667 42.9412 19.2667 42.9412 17 42.9412C17 40.7671 17 38.5929 17 36.3529C14.8 36.3529 12.6 36.3529 10.3333 36.3529C10.3333 35.2659 10.3333 34.1788 10.3333 33.0588C9.23333 33.0588 8.13333 33.0588 7 33.0588C7 26.5365 7 20.0141 7 13.2941C8.1 13.2941 9.2 13.2941 10.3333 13.2941C10.3333 12.2071 10.3333 11.12 10.3333 10ZM13.6667 13.2941C13.6667 14.3812 13.6667 15.4682 13.6667 16.5882C12.5667 16.5882 11.4667 16.5882 10.3333 16.5882C10.3333 20.9365 10.3333 25.2847 10.3333 29.7647C11.4333 29.7647 12.5333 29.7647 13.6667 29.7647C13.6667 30.8518 13.6667 31.9388 13.6667 33.0588C15.8667 33.0588 18.0667 33.0588 20.3333 33.0588C20.3333 34.1459 20.3333 35.2329 20.3333 36.3529C21.4333 36.3529 22.5333 36.3529 23.6667 36.3529C23.6667 35.2659 23.6667 34.1788 23.6667 33.0588C29.1667 33.0588 34.6667 33.0588 40.3333 33.0588C40.3333 31.9718 40.3333 30.8847 40.3333 29.7647C41.4333 29.7647 42.5333 29.7647 43.6667 29.7647C43.6667 25.4165 43.6667 21.0682 43.6667 16.5882C42.5667 16.5882 41.4667 16.5882 40.3333 16.5882C40.3333 15.5012 40.3333 14.4141 40.3333 13.2941C31.5333 13.2941 22.7333 13.2941 13.6667 13.2941Z" fill="#1C2632"/>
<path d="M32.8823 19.4118C35.2117 19.4118 37.5411 19.4118 39.9411 19.4118C39.9411 21.7412 39.9411 24.0706 39.9411 26.4706C37.6117 26.4706 35.2823 26.4706 32.8823 26.4706C32.8823 24.1412 32.8823 21.8118 32.8823 19.4118Z" fill="#1C2632"/>
<path d="M23.4706 19.4118C25.8 19.4118 28.1294 19.4118 30.5294 19.4118C30.5294 21.7412 30.5294 24.0706 30.5294 26.4706C28.2 26.4706 25.8706 26.4706 23.4706 26.4706C23.4706 24.1412 23.4706 21.8118 23.4706 19.4118Z" fill="#1D2733"/>
<path d="M14.0588 19.4118C16 19.4118 17.9412 19.4118 19.9412 19.4118C19.9412 21.7412 19.9412 24.0706 19.9412 26.4706C18 26.4706 16.0588 26.4706 14.0588 26.4706C14.0588 24.1412 14.0588 21.8118 14.0588 19.4118Z" fill="#1B2632"/>
</svg>
