<?xml version="1.0" encoding="UTF-8"?>
<svg version="1.1" xmlns="http://www.w3.org/2000/svg" width="119" height="119">
<path d="M0 0 C39.27 0 78.54 0 119 0 C119 39.27 119 78.54 119 119 C79.73 119 40.46 119 0 119 C0 79.73 0 40.46 0 0 Z " fill="#B7BFD9" transform="translate(0,0)"/>
<path d="M0 0 C9.57 0 19.14 0 29 0 C29 29.7 29 59.4 29 90 C58.7 90 88.4 90 119 90 C119 99.57 119 109.14 119 119 C79.73 119 40.46 119 0 119 C0 79.73 0 40.46 0 0 Z " fill="#5A627B" transform="translate(0,0)"/>
<path d="M0 0 C29.37 0 58.74 0 89 0 C89 19.47 89 38.94 89 59 C84.38 59 79.76 59 75 59 C75 44.48 75 29.96 75 15 C65.1 15 55.2 15 45 15 C45 24.57 45 34.14 45 44 C40.05 44 35.1 44 30 44 C30 39.38 30 34.76 30 30 C24.72 30 19.44 30 14 30 C14 39.9 14 49.8 14 60 C9.38 60 4.76 60 0 60 C0 40.2 0 20.4 0 0 Z " fill="#EAF2FD" transform="translate(30,0)"/>
<path d="M0 0 C9.9 0 19.8 0 30 0 C30 14.52 30 29.04 30 44 C34.62 44 39.24 44 44 44 C44 49.28 44 54.56 44 60 C39.38 60 34.76 60 30 60 C30 64.62 30 69.24 30 74 C29.67 74 29.34 74 29 74 C29 64.43 29 54.86 29 45 C19.1 45 9.2 45 -1 45 C-1 49.95 -1 54.9 -1 60 C-5.95 60 -10.9 60 -16 60 C-16 45.15 -16 30.3 -16 15 C-15.67 15 -15.34 15 -15 15 C-15 19.62 -15 24.24 -15 29 C-10.05 29 -5.1 29 0 29 C0 19.43 0 9.86 0 0 Z " fill="#B9C0DA" transform="translate(75,15)"/>
<path d="M0 0 C5.28 0 10.56 0 16 0 C16.09602554 10.08268146 15.76602183 19.94596347 15 30 C10.05 30 5.1 30 0 30 C0 20.1 0 10.2 0 0 Z " fill="#979DB1" transform="translate(59,45)"/>
<path d="M0 0 C9.57 0 19.14 0 29 0 C29 4.95 29 9.9 29 15 C19.43 15 9.86 15 0 15 C0 10.05 0 5.1 0 0 Z " fill="#E9F1FD" transform="translate(75,60)"/>
<path d="M0 0 C9.57 0 19.14 0 29 0 C29 4.95 29 9.9 29 15 C19.43 15 9.86 15 0 15 C0 10.05 0 5.1 0 0 Z " fill="#4B4F66" transform="translate(0,45)"/>
<path d="M0 0 C4.62 0 9.24 0 14 0 C14 9.9 14 19.8 14 30 C9.38 30 4.76 30 0 30 C0 20.1 0 10.2 0 0 Z " fill="#939AAF" transform="translate(90,15)"/>
<path d="M0 0 C4.95 0 9.9 0 15 0 C15 4.95 15 9.9 15 15 C10.05 15 5.1 15 0 15 C0 10.05 0 5.1 0 0 Z " fill="#747C96" transform="translate(30,90)"/>
<path d="M0 0 C4.95 0 9.9 0 15 0 C15 4.95 15 9.9 15 15 C10.05 15 5.1 15 0 15 C0 10.05 0 5.1 0 0 Z " fill="#999FAF" transform="translate(45,0)"/>
<path d="M0 0 C4.95 0 9.9 0 15 0 C15 5.28 15 10.56 15 16 C12.89625 15.87625 10.7925 15.7525 8.625 15.625 C7.44164062 15.55539063 6.25828125 15.48578125 5.0390625 15.4140625 C2 15 2 15 0 13 C-0.27917421 8.65604929 -0.08542138 4.35649033 0 0 Z " fill="#4B4F68" transform="translate(14,90)"/>
<path d="M0 0 C4.95 0 9.9 0 15 0 C15 4.95 15 9.9 15 15 C10.38 15 5.76 15 1 15 C-0.63356321 10.09931037 -0.05529694 5.14261524 0 0 Z " fill="#4B4F65" transform="translate(89,90)"/>
<path d="M0 0 C4.95 0 9.9 0 15 0 C15 4.62 15 9.24 15 14 C10.05 14 5.1 14 0 14 C0 9.38 0 4.76 0 0 Z " fill="#4A4F66" transform="translate(60,105)"/>
<path d="M0 0 C4.62 0 9.24 0 14 0 C14 4.95 14 9.9 14 15 C9.38 15 4.76 15 0 15 C0 10.05 0 5.1 0 0 Z " fill="#E9F0FC" transform="translate(105,75)"/>
<path d="M0 0 C4.62 0 9.24 0 14 0 C14 4.95 14 9.9 14 15 C9.38 15 4.76 15 0 15 C0 10.05 0 5.1 0 0 Z " fill="#737C99" transform="translate(15,75)"/>
<path d="M0 0 C4.62 0 9.24 0 14 0 C14 4.95 14 9.9 14 15 C9.38 15 4.76 15 0 15 C0 10.05 0 5.1 0 0 Z " fill="#969CAE" transform="translate(105,60)"/>
<path d="M0 0 C4.62 0 9.24 0 14 0 C14 4.95 14 9.9 14 15 C9.38 15 4.76 15 0 15 C0 10.05 0 5.1 0 0 Z " fill="#4C4F68" transform="translate(15,0)"/>
<path d="M0 0 C4.62 0 9.24 0 14 0 C14 4.95 14 9.9 14 15 C12.06125 15.020625 10.1225 15.04125 8.125 15.0625 C7.03445312 15.07410156 5.94390625 15.08570312 4.8203125 15.09765625 C2 15 2 15 0 14 C0 9.38 0 4.76 0 0 Z " fill="#747D9A" transform="translate(105,90)"/>
<path d="M0 0 C4.62 0 9.24 0 14 0 C14 4.62 14 9.24 14 14 C9.38 14 4.76 14 0 14 C0 9.38 0 4.76 0 0 Z " fill="#E9F2FE" transform="translate(30,75)"/>
<path d="M0 0 C4.62 0 9.24 0 14 0 C14 4.62 14 9.24 14 14 C9.38 14 4.76 14 0 14 C0 9.38 0 4.76 0 0 Z " fill="#757C99" transform="translate(15,30)"/>
<path d="M0 0 C0.33 0 0.66 0 1 0 C1 14.52 1 29.04 1 44 C5.62 44 10.24 44 15 44 C15 44.33 15 44.66 15 45 C10.38 45 5.76 45 1 45 C1 54.57 1 64.14 1 74 C0.67 74 0.34 74 0 74 C0 64.43 0 54.86 0 45 C-9.57 45 -19.14 45 -29 45 C-29 44.67 -29 44.34 -29 44 C-19.43 44 -9.86 44 0 44 C0 29.48 0 14.96 0 0 Z " fill="#C8CFDF" transform="translate(104,15)"/>
</svg>
