<svg width="53" height="53" viewBox="0 0 53 53" fill="none" xmlns="http://www.w3.org/2000/svg">
<path d="M49 0H3.5V3.5H0V43H3.5V46H49V43H52.5V3.5H49V0Z" fill="#828C98"/>
<path d="M13.5 29.7456C22.1881 29.7456 30.8761 29.7456 39.8275 29.7456C39.8275 31.9176 39.8275 34.0896 39.8275 36.3275C31.1394 36.3275 22.4513 36.3275 13.5 36.3275C13.5 34.1554 13.5 31.9834 13.5 29.7456Z" fill="#1D2733"/>
<path d="M13.5 19.8728C22.1881 19.8728 30.8761 19.8728 39.8275 19.8728C39.8275 22.0448 39.8275 24.2168 39.8275 26.4547C31.1394 26.4547 22.4513 26.4547 13.5 26.4547C13.5 24.2826 13.5 22.1106 13.5 19.8728Z" fill="#1D2733"/>
<path d="M13.5 10C22.1881 10 30.8761 10 39.8275 10C39.8275 12.172 39.8275 14.344 39.8275 16.5819C31.1394 16.5819 22.4513 16.5819 13.5 16.5819C13.5 14.4099 13.5 12.2378 13.5 10Z" fill="#1D2733"/>
<path d="M0 43H3.5V46H49V43H52.5V49.5H49V53H3.5V49.5H0V43Z" fill="#4B5362"/>
<path d="M52.5 43V49.5H49V43H52.5Z" fill="#2C3340"/>
</svg>
